<?xml version="1.0" standalone="no"?>
<!DOCTYPE svg PUBLIC "-//W3C//DTD SVG 20010904//EN"
 "http://www.w3.org/TR/2001/REC-SVG-20010904/DTD/svg10.dtd">
<svg version="1.0" xmlns="http://www.w3.org/2000/svg"
 width="942.000000pt" height="941.000000pt" viewBox="0 0 942.000000 941.000000"
 preserveAspectRatio="xMidYMid meet">

<g transform="translate(0.000000,941.000000) scale(0.100000,-0.100000)"
fill="#000000" stroke="none">
<path d="M0 7325 c0 -1845 2 -2086 15 -2091 19 -8 19 -48 0 -64 -21 -18 -22
-212 -1 -204 26 10 44 -36 43 -106 -2 -63 -3 -65 -29 -68 -25 -3 -28 -8 -28
-38 0 -29 3 -34 23 -34 51 0 64 -56 20 -88 -28 -21 -24 -42 8 -42 16 0 20 -6
17 -27 -4 -34 -34 -43 -53 -16 -12 15 -14 -35 -15 -360 l0 -379 48 4 c41 3 47
1 47 -17 0 -17 -6 -20 -47 -18 l-48 1 0 -322 c0 -220 4 -334 12 -356 9 -26 9
-35 0 -38 -15 -5 -16 -124 -1 -139 8 -8 8 -13 0 -17 -15 -10 -14 -139 2 -155
10 -11 10 -14 0 -18 -10 -3 -13 -40 -12 -141 1 -75 4 -122 8 -103 3 19 12 36
20 39 11 4 12 -3 7 -31 -5 -25 -2 -39 9 -50 8 -9 15 -23 15 -31 0 -26 -28 -18
-44 12 -15 27 -15 27 -16 -26 0 -49 1 -52 16 -37 19 19 26 15 29 -20 3 -22 0
-24 -21 -19 l-24 6 0 -127 c0 -127 0 -128 20 -110 11 10 20 30 20 45 0 16 7
30 15 33 20 8 57 94 50 117 -7 21 36 70 60 70 7 0 23 11 36 25 13 13 32 25 42
25 9 0 17 4 17 8 0 12 46 32 78 33 24 2 25 2 4 6 -13 3 -22 9 -20 14 5 14 261
179 278 179 9 -1 4 -10 -15 -25 -19 -16 -24 -25 -15 -25 22 0 132 59 151 80 9
10 40 33 70 51 30 18 69 44 88 58 27 21 30 26 16 31 -30 11 60 65 325 196 144
71 154 76 212 95 21 7 38 17 38 21 0 5 6 8 13 7 18 -4 127 33 127 43 0 4 8 8
17 8 37 0 159 47 186 71 22 20 147 82 202 101 22 7 64 25 94 40 29 16 68 28
85 28 49 0 80 44 116 162 6 21 16 40 21 44 6 4 3 14 -7 25 -23 26 -37 24 -30
-4 7 -29 -18 -67 -45 -67 -11 0 -19 -7 -19 -16 0 -24 -41 -53 -77 -54 -35 0
-52 -15 -27 -24 21 -8 8 -26 -19 -24 -12 0 -34 -3 -50 -7 -21 -6 -27 -4 -27 9
0 11 9 16 33 16 l32 1 -25 14 c-14 7 -26 18 -26 24 -1 6 -2 16 -3 21 0 6 -9
10 -20 10 -41 0 -54 52 -18 74 15 9 22 6 41 -16 45 -57 80 -24 70 67 -6 52 -5
55 15 55 27 0 49 -43 33 -63 -17 -20 0 -71 25 -75 18 -3 22 4 28 45 5 38 14
148 15 206 0 22 31 1 59 -43 30 -46 65 -80 83 -80 4 0 20 14 36 31 28 30 29
35 24 95 -4 60 -3 64 17 64 11 0 26 -9 33 -20 7 -11 21 -20 31 -20 11 0 17 -5
14 -12 -2 -7 -11 -12 -19 -12 -11 1 -14 -5 -10 -18 2 -11 0 -29 -5 -41 -6 -12
-20 -49 -33 -82 -12 -33 -35 -86 -51 -118 -23 -48 -27 -62 -18 -84 8 -22 7
-30 -5 -39 -25 -18 -38 -62 -24 -84 10 -15 10 -22 1 -31 -7 -7 -9 -18 -4 -28
5 -9 5 -26 0 -39 -7 -18 -14 -22 -30 -17 -19 6 -21 4 -15 -11 11 -28 24 -104
18 -104 -2 0 0 -6 6 -13 12 -15 4 -77 -11 -77 -5 0 -2 -9 8 -20 25 -27 35 -25
35 8 0 66 13 103 37 113 29 11 59 -11 41 -29 -8 -8 -2 -18 18 -35 l29 -25 -24
-33 c-16 -21 -20 -34 -13 -37 12 -4 20 -20 61 -116 25 -58 25 -56 6 -56 -8 0
-15 7 -15 15 0 8 -4 15 -10 15 -14 0 -12 -27 3 -33 9 -4 9 -7 -1 -15 -13 -9
-6 -42 9 -42 5 0 9 -7 9 -15 0 -21 13 -19 28 6 11 17 11 23 -2 32 -13 10 -13
14 -1 24 18 17 27 2 27 -43 0 -19 4 -34 9 -34 5 0 9 -7 9 -15 0 -9 7 -18 15
-21 8 -4 15 -14 15 -23 0 -9 7 -27 16 -39 9 -13 14 -25 13 -27 -10 -9 -87 37
-92 54 -3 14 -1 18 9 14 8 -3 14 -1 14 5 0 17 -25 20 -44 6 -15 -11 -17 -16
-7 -28 10 -12 8 -16 -8 -21 -33 -10 -25 -27 11 -23 19 2 33 -2 35 -9 3 -7 0
-13 -6 -13 -6 0 -11 -9 -11 -20 0 -22 29 -27 47 -9 17 17 53 -7 53 -34 0 -13
5 -28 12 -35 9 -9 9 -15 0 -24 -18 -18 -50 15 -34 35 14 16 6 27 -20 27 -19 0
-24 -15 -8 -25 7 -4 7 -13 0 -26 -7 -11 -7 -19 -1 -19 5 0 23 -14 41 -31 l31
-31 -27 -35 c-28 -37 -24 -49 16 -55 13 -2 30 -13 36 -26 7 -15 14 -20 18 -13
10 16 26 13 26 -4 0 -8 -5 -15 -11 -15 -6 0 -9 -7 -5 -15 8 -22 -4 -45 -23
-45 -9 0 -23 -5 -31 -10 -13 -8 -13 -13 -2 -31 12 -18 11 -24 -5 -41 -15 -17
-27 -19 -75 -15 -32 3 -58 1 -58 -3 0 -5 -17 0 -37 10 -36 17 -70 17 -42 -1
11 -7 10 -9 -3 -9 -10 0 -18 4 -18 10 0 5 -18 19 -40 30 -22 11 -48 32 -57 47
-28 42 -27 135 2 206 12 30 -60 21 -172 -23 -93 -37 -108 -40 -170 -35 -37 3
-77 6 -88 6 -11 1 -53 7 -94 15 -132 25 -157 17 -101 -34 l29 -27 -30 -14
c-22 -9 -27 -16 -18 -21 7 -5 18 -6 24 -4 18 7 25 -18 16 -58 -6 -24 -4 -40 5
-53 8 -10 11 -28 8 -40 -4 -18 3 -25 45 -45 50 -23 51 -23 90 -6 27 13 44 15
56 9 9 -6 39 -8 66 -5 44 4 49 2 49 -16 0 -24 25 -48 34 -33 5 7 15 7 31 -1
26 -12 24 -30 -3 -27 -24 4 -62 -10 -62 -23 0 -6 7 -7 18 -3 25 10 112 12 118
3 3 -4 -11 -8 -30 -8 -36 0 -52 -19 -18 -21 15 0 14 -1 -2 -8 -19 -7 -19 -8 3
-14 13 -3 20 -10 16 -16 -11 -19 5 -12 33 14 15 14 30 25 35 25 12 0 -14 -43
-35 -59 -18 -12 -19 -14 -2 -33 15 -16 16 -23 6 -38 -7 -11 -12 -29 -12 -40 0
-11 -11 -27 -25 -36 l-26 -17 23 -15 c13 -9 26 -21 31 -28 10 -17 67 -45 78
-38 5 3 7 9 4 13 -8 14 53 21 81 11 31 -12 29 -41 -4 -55 -12 -5 -22 -17 -22
-26 0 -9 -10 -20 -23 -24 -12 -3 -17 -8 -11 -11 20 -9 119 32 129 52 6 12 15
19 22 17 6 -2 14 1 18 6 10 17 25 13 19 -4 -4 -8 1 -17 10 -21 23 -9 20 -33
-3 -27 -12 3 -24 -2 -31 -14 -9 -14 -21 -18 -47 -15 -27 4 -34 1 -28 -8 5 -8
4 -11 -3 -6 -6 3 -18 -1 -26 -10 -15 -14 -16 -14 -16 0 0 12 -12 16 -47 18
-93 3 -111 -1 -97 -23 5 -9 11 -7 20 6 11 15 18 17 36 8 13 -7 35 -14 51 -17
15 -4 27 -13 27 -21 0 -19 9 -19 24 -1 14 17 76 30 76 15 0 -6 -14 -16 -30
-22 -17 -6 -30 -19 -30 -28 0 -21 -24 -31 -39 -16 -8 8 -11 7 -11 -6 0 -9 -7
-17 -15 -17 -8 0 -15 7 -15 15 0 8 -6 15 -12 15 -7 1 -3 9 10 19 30 26 28 33
-10 29 -28 -2 -32 -7 -30 -26 2 -13 -2 -22 -10 -22 -7 0 -18 -11 -24 -25 -10
-19 -9 -27 3 -37 11 -9 16 -9 22 0 4 6 26 13 49 15 24 3 45 7 48 10 3 3 13 3
21 0 8 -3 22 3 32 13 48 51 67 60 104 56 46 -5 44 -23 -5 -37 -40 -11 -60 -25
-37 -25 21 -1 -33 -29 -55 -30 -11 0 -16 -3 -13 -7 4 -4 41 -7 83 -8 86 -2
107 -14 79 -45 -16 -18 -17 -23 -4 -46 12 -23 11 -27 -4 -39 -35 -25 -15 -60
41 -71 41 -8 41 -21 0 -29 -51 -10 -101 -36 -91 -46 6 -6 22 -3 42 7 25 13 35
13 46 4 21 -17 19 -26 -7 -35 l-23 -8 22 -4 c19 -4 21 -9 16 -34 -5 -25 -2
-29 16 -29 18 0 21 4 16 20 -5 15 -2 20 10 20 12 0 15 -5 10 -17 -4 -10 -8
-23 -9 -29 -1 -7 -8 -19 -14 -27 -11 -13 -10 -17 5 -25 16 -9 15 -11 -10 -17
-47 -12 -30 -26 26 -20 28 3 46 2 40 -1 -7 -3 -13 -12 -13 -19 0 -8 -13 -21
-28 -31 -16 -9 -34 -25 -40 -35 -10 -16 -9 -19 8 -19 13 0 20 -7 20 -20 0 -18
3 -19 20 -10 24 13 26 30 3 30 -13 0 -11 4 7 20 26 22 40 26 40 9 0 -13 42 -1
52 15 6 8 8 8 8 -1 0 -6 -11 -20 -25 -31 -30 -24 -31 -29 -7 -35 10 -3 6 -5
-11 -6 -28 -1 -51 -31 -29 -39 14 -4 16 -32 3 -32 -6 0 -13 5 -16 10 -3 5 -13
10 -21 10 -10 0 -1 -19 27 -55 34 -45 39 -58 29 -70 -10 -12 -9 -20 5 -42 17
-26 17 -27 -6 -44 -55 -40 -63 -48 -53 -49 5 0 19 8 30 18 18 17 124 39 124
26 0 -3 -9 -19 -21 -35 -15 -22 -28 -29 -47 -27 -36 4 -39 -21 -7 -57 20 -21
23 -30 14 -36 -10 -6 -10 -11 0 -23 7 -9 11 -23 7 -31 -3 -9 1 -18 9 -21 8 -4
15 -15 15 -25 0 -19 11 -25 24 -12 4 4 17 9 30 10 17 2 25 -3 29 -17 5 -18 10
-20 49 -14 23 4 56 13 71 21 32 16 46 11 28 -11 -8 -10 -9 -16 -1 -21 5 -3 10
-10 10 -15 0 -10 -76 -50 -94 -50 -15 0 -18 -62 -5 -71 6 -3 -1 -9 -15 -13
-23 -6 -25 -9 -16 -26 10 -18 21 -20 120 -20 70 0 118 5 131 13 17 9 23 9 26
0 6 -16 393 -19 393 -3 0 6 -5 10 -11 10 -6 0 18 29 52 64 51 51 67 63 81 55
26 -14 31 -11 56 24 28 42 28 47 -5 47 l-26 0 24 26 c39 42 77 58 105 44 18
-10 31 -9 70 4 26 9 56 16 66 16 27 0 22 -25 -8 -38 -14 -7 -22 -17 -19 -22 8
-13 83 -2 111 15 11 7 31 15 45 18 21 4 20 4 -6 6 l-30 1 30 19 c17 10 33 16
37 12 12 -11 21 -101 10 -101 -5 0 -12 7 -16 15 -3 8 -12 12 -20 9 -20 -8 1
-44 26 -44 15 0 17 -9 16 -61 -2 -68 -13 -79 -55 -60 -23 11 -29 9 -56 -16
-28 -27 -30 -27 -24 -5 7 28 -19 30 -28 2 -8 -26 -23 -25 -59 5 -30 24 -30 24
-57 5 -14 -11 -29 -29 -32 -40 -5 -20 -1 -20 259 -20 231 0 263 2 258 15 -5
11 -2 13 10 9 9 -3 16 -10 16 -15 0 -15 1873 -12 1888 3 9 9 12 9 12 0 0 -9
216 -12 940 -12 829 0 943 2 964 15 21 14 24 14 29 0 4 -8 18 -15 33 -15 23 0
26 3 22 25 -5 24 -3 25 43 25 32 0 49 -4 49 -12 0 -7 5 -5 11 4 5 10 19 18 31
18 11 0 39 5 61 12 33 10 41 10 51 -3 6 -9 17 -14 23 -12 7 3 21 -9 30 -26
l18 -31 428 0 427 0 0 290 c0 271 -1 291 -19 309 -21 21 -34 110 -26 181 3 25
10 95 16 155 5 61 14 120 19 133 6 13 10 56 10 96 0 59 -3 75 -16 80 -16 6
-16 8 0 24 18 20 21 42 7 42 -5 0 -13 9 -16 20 -4 12 -22 37 -42 56 l-35 35 7
97 c9 132 9 132 56 132 32 0 39 3 39 20 0 19 -10 24 -65 32 -15 3 -21 14 -27
53 -5 28 -6 59 -3 71 2 11 5 107 7 213 2 210 2 211 62 211 21 0 26 5 26 25 0
22 -4 25 -34 25 -19 0 -38 5 -42 11 -10 17 -7 176 5 244 6 33 11 104 11 158 0
106 9 137 40 137 16 0 20 7 20 30 0 27 -3 30 -31 30 l-31 0 6 48 c3 26 8 97
11 157 11 248 17 300 33 313 14 11 14 12 -1 12 -9 0 -17 7 -17 15 0 8 7 15 15
15 13 0 15 337 15 2970 l0 2970 -2481 0 -2482 0 6 -147 c4 -82 10 -263 13
-403 5 -194 10 -260 21 -277 8 -12 13 -36 11 -55 -3 -28 -9 -35 -51 -52 -47
-20 -47 -20 -90 1 -39 19 -42 24 -41 55 1 20 7 45 14 58 8 15 13 97 16 244 2
121 5 301 8 399 l5 177 -2184 0 -2185 0 0 -2085z m4040 1464 c-29 -86 -73
-168 -78 -147 -3 15 14 59 76 190 25 55 27 28 2 -43z m194 -34 c-4 -8 -10 -15
-15 -15 -4 0 -6 7 -3 15 4 8 10 15 15 15 4 0 6 -7 3 -15z m-38 -49 c8 -31 2
-71 -11 -71 -5 0 -11 21 -13 48 -3 49 13 66 24 23z m106 -157 c-3 -36 -15 -49
-49 -49 -30 0 -29 14 5 56 33 41 48 39 44 -7z m3591 -714 c6 -32 5 -78 -2
-127 -7 -47 -9 -116 -5 -177 8 -116 2 -151 -26 -151 -14 0 -20 7 -20 23 0 12
-2 115 -5 228 -6 216 0 263 32 257 12 -2 20 -18 26 -53z m-3729 -419 c30 -8
64 -24 76 -36 16 -16 25 -19 33 -11 17 17 42 13 62 -9 24 -26 33 -25 46 4 10
20 18 24 60 23 38 -1 50 -5 55 -19 3 -10 9 -18 14 -18 5 0 16 -12 24 -27 13
-26 15 -27 22 -8 4 11 23 34 41 53 27 27 36 31 53 22 10 -6 24 -18 29 -28 8
-13 12 -14 19 -4 10 15 63 6 59 -10 -1 -6 4 -13 11 -15 6 -3 12 2 12 10 0 8 6
19 13 25 17 13 117 -31 117 -52 0 -19 -5 -20 -31 -5 -24 12 -59 3 -59 -16 0
-21 38 -28 72 -14 26 11 32 10 40 -4 5 -9 16 -17 25 -17 10 0 28 -11 42 -24
16 -15 45 -28 76 -33 41 -7 50 -12 55 -33 5 -22 12 -25 50 -27 24 -1 51 2 59
7 18 10 71 -17 71 -37 0 -7 9 -13 20 -13 11 0 20 -5 20 -10 0 -6 15 -18 34
-26 18 -9 41 -30 51 -48 10 -17 31 -47 47 -66 15 -19 28 -45 28 -57 0 -25 14
-55 41 -88 9 -11 20 -30 24 -42 7 -26 33 -31 41 -8 10 26 49 17 75 -17 55 -74
89 -133 89 -157 0 -15 35 -151 55 -216 6 -19 3 -20 -37 -17 -28 3 -52 13 -70
29 -15 15 -33 23 -42 20 -8 -3 -77 0 -153 8 -227 24 -233 24 -298 -35 -30 -27
-60 -50 -67 -50 -19 0 -48 -32 -48 -52 0 -15 -8 -18 -54 -18 -62 0 -107 17
-156 58 -28 24 -32 32 -22 44 6 8 9 18 5 21 -3 4 -1 7 5 7 21 0 13 20 -11 29
-29 11 -42 27 -57 74 -15 48 -62 83 -130 98 -29 6 -92 29 -139 51 -165 76
-256 94 -396 76 -49 -6 -95 -15 -101 -20 -7 -5 -23 -4 -38 2 -21 8 -35 6 -64
-9 -20 -10 -62 -22 -92 -26 -30 -4 -72 -14 -94 -21 -21 -8 -51 -14 -67 -14
-34 0 -40 -20 -6 -21 l22 0 -22 -9 c-13 -5 -23 -17 -23 -26 0 -25 -29 -54 -54
-54 -12 0 -32 -4 -46 -8 -18 -5 -7 -8 44 -12 65 -5 71 -7 99 -42 l29 -37 -11
-148 c-13 -153 -4 -326 21 -403 38 -122 176 -190 536 -265 40 -8 101 -15 135
-15 108 0 117 -34 20 -69 -149 -55 -169 -76 -101 -107 22 -10 44 -28 48 -40 6
-15 26 -28 59 -39 l51 -17 1 -51 0 -52 57 -37 c47 -30 70 -38 131 -44 63 -6
76 -4 86 10 11 14 14 15 25 1 7 -8 20 -15 30 -15 10 0 23 -7 31 -16 20 -24 0
-45 -61 -66 -30 -10 -64 -28 -76 -39 -17 -16 -30 -20 -49 -15 -21 5 -27 2 -35
-19 -22 -58 -10 -66 50 -37 29 14 48 16 109 10 45 -5 82 -15 92 -24 13 -12 28
-15 55 -10 20 4 34 4 31 -1 -3 -4 28 -9 69 -10 63 -1 79 -5 113 -30 22 -15 41
-36 41 -45 0 -15 -9 -18 -58 -18 -36 0 -66 -6 -78 -15 -27 -21 -78 -18 -127 7
-23 12 -58 20 -79 20 -20 -1 -40 3 -43 8 -14 23 -112 12 -266 -32 -36 -10 -69
-18 -73 -18 -15 0 -4 32 19 52 14 12 25 27 25 35 0 7 12 20 26 29 l25 17 -33
14 c-42 18 -89 10 -126 -22 -16 -13 -32 -22 -35 -19 -3 3 -18 -1 -34 -9 -15
-9 -46 -23 -68 -32 -75 -30 -90 -41 -93 -63 -2 -12 -10 -22 -17 -22 -22 0 -43
-50 -40 -95 2 -31 9 -45 34 -64 29 -22 35 -23 89 -13 31 6 101 14 155 18 86 5
96 8 85 21 -10 12 -9 18 7 30 44 33 304 -8 388 -61 12 -8 45 -17 72 -20 90
-12 145 -42 145 -79 0 -11 -17 -37 -38 -58 -38 -37 -40 -38 -98 -33 -32 3 -78
12 -102 21 -24 8 -53 12 -65 9 -12 -3 -50 -1 -85 5 -69 12 -178 -1 -219 -27
-12 -8 -34 -14 -49 -14 -15 0 -35 -6 -43 -14 -9 -8 -52 -20 -96 -27 -87 -14
-109 -23 -76 -34 24 -7 28 -25 6 -25 -8 0 -19 9 -25 20 -15 28 -55 36 -85 16
-14 -9 -25 -12 -25 -7 0 13 -83 20 -99 7 -7 -6 -26 -9 -42 -8 -22 3 -37 -5
-63 -32 l-33 -36 34 -21 c18 -12 49 -22 67 -24 19 -2 44 -8 55 -14 13 -8 33
-9 53 -3 30 8 87 0 133 -19 36 -14 89 -29 125 -34 19 -3 62 -10 95 -14 118
-18 159 -34 213 -86 27 -26 31 -36 26 -61 -8 -43 -66 -73 -119 -62 -29 7 -52
4 -83 -8 -25 -9 -56 -14 -73 -10 -16 3 -41 0 -55 -6 -17 -8 -28 -9 -32 -1 -13
20 -69 26 -249 28 -160 2 -187 5 -210 21 -16 11 -39 24 -53 31 -14 7 -32 17
-40 21 -43 25 -60 30 -79 25 -18 -5 -21 -1 -21 28 -1 19 -6 44 -13 55 -16 28
-67 71 -101 83 -14 6 -26 15 -26 21 0 6 4 9 9 5 5 -3 22 10 38 28 15 18 45 44
66 56 20 12 37 30 37 39 0 8 8 24 18 35 17 19 16 19 -18 12 -51 -11 -62 -19
-74 -56 -10 -31 -15 -34 -52 -37 -38 -3 -41 -1 -37 20 3 17 -2 26 -19 33 -14
6 -25 21 -28 40 -7 40 -32 38 -42 -2 -7 -29 -12 -32 -41 -29 -17 2 -40 7 -50
11 -26 11 -35 -3 -39 -58 -2 -38 0 -48 14 -53 16 -5 78 -89 78 -106 0 -4 10
-8 23 -8 58 0 67 -9 67 -65 0 -34 -5 -55 -12 -58 -10 -4 -10 -7 0 -18 17 -19
15 -46 -6 -61 -15 -10 -18 -25 -17 -73 2 -33 6 -79 10 -101 7 -38 6 -42 -18
-48 -28 -7 -49 -51 -37 -76 28 -55 42 -238 21 -264 -10 -12 -10 -19 2 -36 13
-19 13 -25 1 -48 -9 -18 -12 -40 -8 -66 5 -33 4 -38 -10 -33 -12 5 -16 0 -16
-17 0 -15 13 -33 35 -51 57 -43 73 -63 68 -90 -4 -19 2 -27 36 -44 23 -12 41
-26 41 -31 0 -5 9 -12 20 -15 17 -5 20 -15 20 -57 0 -34 5 -54 15 -62 9 -6 18
-34 22 -63 3 -29 10 -53 14 -53 5 0 9 -7 9 -15 0 -24 36 -87 65 -114 14 -13
25 -26 25 -30 0 -4 18 -17 40 -30 23 -12 42 -32 46 -45 3 -13 16 -29 30 -36
13 -8 35 -32 48 -54 13 -23 71 -87 129 -144 105 -102 106 -102 156 -102 27 0
53 -4 56 -10 3 -5 2 -10 -3 -10 -6 0 -12 -7 -15 -14 -4 -11 -1 -13 11 -10 15
5 15 4 2 -8 -8 -7 -23 -25 -32 -39 -9 -14 -42 -55 -73 -90 -90 -103 -178 -241
-190 -299 -4 -19 -11 -41 -15 -50 -19 -39 -28 -80 -18 -86 5 -4 1 -15 -10 -28
-25 -27 -38 -82 -22 -101 9 -10 7 -16 -7 -24 -14 -8 -9 -10 27 -10 25 0 54 4
65 8 11 5 30 4 42 -2 18 -8 29 -4 60 20 70 53 121 65 108 23 -7 -23 15 -31 69
-24 45 7 61 -2 51 -29 -5 -11 -25 -13 -101 -11 -52 2 -98 5 -102 8 -4 2 -8 -4
-8 -15 0 -17 6 -20 34 -17 23 2 38 -3 46 -14 10 -14 23 -16 63 -12 l49 6 -4
-37 -4 -37 -49 7 c-27 4 -49 4 -49 1 0 -3 20 -14 45 -25 25 -11 45 -25 45 -30
0 -14 -44 -25 -97 -26 -47 0 -49 -2 -30 -42 15 -35 40 -60 64 -65 13 -2 18
-13 19 -41 1 -34 -1 -37 -25 -35 -14 1 -37 -4 -50 -11 -19 -11 -25 -11 -32 0
-7 11 -12 12 -29 2 -11 -7 -27 -13 -35 -13 -8 0 -15 -4 -15 -10 0 -5 9 -10 20
-10 11 0 23 -6 26 -14 6 -15 44 -29 79 -30 15 -1 21 -9 23 -32 3 -30 1 -32
-30 -32 -18 -1 -46 -5 -63 -10 -42 -12 -89 9 -105 47 -7 17 -16 31 -21 31 -11
0 1 31 18 48 6 7 10 19 7 26 -3 8 -1 17 5 21 15 9 14 42 -1 48 -10 4 -9 8 2
16 12 9 11 11 -10 12 -46 3 -55 5 -82 17 -36 15 -36 38 -1 49 22 8 31 6 46
-11 18 -21 18 -21 12 15 -4 28 -1 40 15 54 18 17 28 55 14 55 -11 0 -43 -45
-44 -61 0 -9 -3 -18 -6 -22 -9 -9 -44 16 -44 30 0 7 -11 13 -25 13 -14 0 -25
5 -25 10 0 6 11 10 25 10 22 0 25 3 19 25 -5 22 -3 25 20 25 14 0 26 4 26 9 0
13 37 20 48 9 18 -18 45 -4 48 24 2 25 0 27 -16 18 -10 -6 -21 -14 -25 -19 -3
-6 -24 -3 -51 7 -49 18 -76 10 -83 -24 -4 -25 -30 -54 -48 -54 -7 0 -17 8 -20
18 -4 9 -15 26 -25 36 -10 11 -18 30 -18 42 0 12 -7 27 -15 34 -8 7 -15 17
-15 22 0 6 -13 27 -28 47 -16 20 -36 52 -45 71 -9 19 -39 53 -67 75 -53 41
-103 86 -200 179 -30 29 -73 63 -95 74 -78 41 -140 96 -143 127 -2 17 -10 34
-18 38 -8 4 -14 14 -14 22 0 7 -9 16 -19 20 -11 3 -26 17 -35 30 -9 14 -23 25
-31 25 -7 0 -22 13 -31 29 -10 17 -39 42 -66 56 -26 14 -48 30 -48 36 0 5 -9
9 -20 9 -11 0 -20 3 -20 8 0 4 -10 12 -22 17 -14 6 -24 20 -25 35 -4 75 -18
131 -34 146 -11 10 -19 31 -19 47 0 17 -9 49 -20 71 -23 50 -80 256 -80 294
-1 15 -10 70 -21 122 -25 116 -42 306 -37 420 3 76 7 93 44 165 52 103 74 182
74 275 2 409 -10 1100 -20 1170 -6 47 -12 86 -13 86 -1 1 -40 20 -87 42 -115
55 -159 95 -209 192 -66 126 -91 210 -101 340 -23 287 2 526 69 657 72 141
223 136 326 -11 80 -115 94 -126 158 -133 l57 -6 0 31 c0 25 8 36 46 61 25 17
47 31 50 31 4 0 20 6 37 14 18 8 54 17 80 21 27 3 47 11 45 16 -2 6 -6 11 -8
11 -9 1 -94 -24 -120 -34 -28 -12 -128 -37 -147 -38 -25 0 -12 21 20 35 21 9
27 15 17 18 -46 16 -45 15 -27 16 15 1 16 5 7 21 -8 15 -8 20 1 20 7 0 9 11 5
34 -6 33 -5 35 21 33 20 -1 30 4 38 21 12 28 23 28 52 0 18 -16 26 -19 35 -10
9 9 7 13 -5 18 -26 10 -20 28 17 48 27 14 38 16 55 6 28 -14 61 -4 61 20 0 10
8 21 19 25 10 3 26 26 36 52 10 25 26 54 36 64 9 9 22 26 28 37 6 11 25 23 41
27 33 7 170 134 170 157 1 7 12 31 25 53 41 65 55 102 55 140 0 20 8 64 18 98
22 81 78 137 158 163 31 9 61 26 67 36 12 19 57 25 57 8 0 -19 52 -32 76 -19
14 7 39 9 66 5 37 -6 47 -3 63 14 22 24 20 24 89 6z m23 -872 c116 -23 205
-45 228 -54 11 -5 36 -14 55 -19 31 -9 30 -10 -15 -4 -27 3 -60 10 -73 14 -53
20 -97 4 -49 -18 49 -23 118 -208 77 -208 -8 0 -21 -6 -28 -12 -7 -7 -24 -13
-37 -13 -39 0 -38 -18 2 -37 52 -25 48 -44 -12 -66 -98 -37 -226 -34 -472 11
l-93 17 0 40 c1 70 29 249 46 287 24 54 82 76 201 77 51 1 127 -6 170 -15z
m-1382 -114 c0 -11 -13 -16 -47 -18 -27 -2 -48 -7 -48 -11 0 -5 -9 -11 -20
-14 -11 -3 -20 -1 -20 4 0 5 4 9 10 9 5 0 17 9 27 19 30 32 98 39 98 11z
m1772 5 c20 -8 34 -18 31 -21 -4 -3 -14 -1 -25 4 -10 6 -29 15 -43 20 -14 6
-19 11 -12 11 7 1 29 -6 49 -14z m-1752 -85 c0 -22 -21 -22 -22 1 -1 12 3 19
10 16 7 -2 12 -10 12 -17z m-5 -79 c0 -5 -7 -12 -16 -15 -24 -9 -28 -7 -14 9
14 17 30 20 30 6z m2065 -92 c8 -47 -20 -115 -75 -180 -51 -60 -120 -168 -120
-188 -1 -9 -7 -33 -14 -53 -8 -21 -11 -38 -7 -38 9 0 97 104 129 154 41 61 38
23 -4 -51 -48 -86 -112 -155 -172 -184 -146 -72 -623 25 -760 155 -43 40 -65
84 -87 170 -19 79 -14 136 13 136 18 0 115 -89 158 -146 20 -25 43 -38 107
-59 165 -55 200 -51 352 39 50 29 106 56 126 60 24 4 39 14 47 30 7 16 22 25
49 30 68 12 94 27 100 58 3 15 18 39 34 53 16 13 29 30 29 38 0 8 7 20 15 27
8 7 15 22 15 34 1 19 4 17 30 -13 16 -18 32 -51 35 -72z m203 -59 c32 -30 29
-60 -6 -60 -16 0 -32 -3 -36 -7 -11 -11 -106 -13 -106 -3 0 5 5 12 10 15 6 3
10 15 10 25 0 46 89 67 128 30z m676 -29 c27 -30 17 -55 -23 -59 -31 -3 -33
-6 -28 -31 4 -17 0 -36 -8 -47 -13 -18 -16 -18 -131 1 -65 11 -118 25 -118 30
1 9 130 91 177 113 10 4 39 9 66 10 36 1 52 -3 65 -17z m-689 -135 c36 -28 60
-71 121 -220 32 -77 54 -96 54 -46 0 40 27 38 53 -5 26 -42 127 -144 159 -161
15 -8 37 -14 50 -14 12 0 31 -11 43 -25 19 -24 22 -25 55 -13 19 7 41 19 48
26 38 35 75 2 95 -86 l14 -63 -61 7 c-103 10 -245 55 -323 100 -23 13 -46 24
-52 24 -18 0 -13 -46 7 -62 20 -18 172 -69 279 -94 61 -14 71 -20 61 -31 -9
-11 -9 -16 1 -22 9 -6 5 -10 -14 -15 -14 -4 -30 -4 -34 -2 -5 3 -34 -1 -65 -9
-57 -15 -96 -9 -96 16 0 5 -8 13 -17 16 -10 4 -29 15 -42 25 -30 23 -37 23
-44 -3 -11 -43 -63 10 -70 71 -3 34 -4 35 -43 32 -96 -9 -244 -4 -273 8 -31
13 -86 6 -77 -9 3 -5 -29 -12 -72 -16 -95 -8 -154 -33 -210 -88 -42 -41 -43
-41 -70 -26 -24 13 -27 21 -25 62 2 58 63 174 123 232 23 22 51 56 63 75 12
19 49 74 83 121 34 47 76 112 93 144 17 32 37 65 43 73 19 23 100 10 143 -22z
m423 -22 c21 -9 52 -22 70 -30 36 -15 51 -39 34 -56 -12 -12 -81 12 -113 39
-8 7 -26 13 -40 13 -13 0 -30 4 -38 9 -12 8 -12 12 -2 25 17 20 43 20 89 0z
m643 -245 c-16 -95 -40 -164 -81 -226 -43 -67 -92 -103 -136 -103 -28 1 -28 1
11 22 22 11 52 34 66 50 34 39 109 189 109 218 0 22 31 103 37 97 1 -2 -1 -28
-6 -58z m-93 14 c-5 -26 -38 -29 -38 -4 0 15 6 21 21 21 14 0 19 -5 17 -17z
m-187 -99 c24 -25 24 -26 5 -40 -27 -19 -49 -18 -77 6 l-24 20 25 20 c33 26
42 25 71 -6z m1285 -46 c5 -16 1 -27 -16 -40 -27 -22 -34 -22 -50 -3 -10 12
-10 21 -2 40 15 33 58 34 68 3z m-6842 -178 c49 -18 20 -90 -36 -90 -23 0 -48
38 -48 72 0 24 4 28 29 28 16 0 41 -4 55 -10z m6909 -151 c39 -10 97 -57 97
-78 0 -15 -37 -14 -117 5 -58 13 -113 15 -358 9 -398 -9 -1389 -23 -1393 -20
-9 7 46 46 77 56 21 6 176 13 356 16 176 3 482 8 680 12 198 3 418 8 489 9 71
1 147 -3 169 -9z m-1813 -28 c6 -12 6 -22 1 -25 -5 -4 -24 -49 -41 -101 -17
-52 -36 -97 -41 -100 -5 -4 -9 -20 -9 -36 0 -43 -24 -32 -26 12 -1 19 -4 61
-8 94 l-8 60 54 57 c29 32 56 58 60 58 4 0 12 -9 18 -19z m-577 -7 c9 -10 -4
-34 -19 -34 -8 0 -14 9 -14 20 0 19 19 27 33 14z m2935 -128 c0 -68 -3 -148
-8 -178 l-8 -53 -1 70 c-1 44 -5 65 -10 56 -5 -7 -7 -40 -4 -71 3 -32 3 -70
-1 -85 -8 -32 -30 -22 -23 12 6 32 -12 115 -24 107 -5 -3 -9 1 -9 9 0 8 9 17
21 20 11 3 19 11 18 19 -3 27 1 38 16 38 20 0 19 36 -1 44 -9 4 -12 11 -7 18
4 7 8 34 9 59 0 25 4 51 8 57 18 29 24 -6 24 -122z m-599 3 c42 -15 41 -33 -1
-22 -18 4 -114 6 -213 4 -99 -1 -176 1 -172 6 5 4 77 10 160 14 84 3 161 6
173 7 12 1 35 -3 53 -9z m-266 -46 c-7 -2 -19 -2 -25 0 -7 3 -2 5 12 5 14 0
19 -2 13 -5z m184 1 c-3 -3 -12 -4 -19 -1 -8 3 -5 6 6 6 11 1 17 -2 13 -5z
m60 0 c-3 -3 -12 -4 -19 -1 -8 3 -5 6 6 6 11 1 17 -2 13 -5z m-1717 -31 c0 -5
-5 -15 -10 -23 -8 -12 -10 -11 -10 8 0 12 5 22 10 22 6 0 10 -3 10 -7z m1110
-43 c43 -43 12 -115 -46 -108 -40 4 -54 45 -31 93 19 40 46 46 77 15z m-6184
-137 c-11 -11 -19 6 -11 24 8 17 8 17 12 0 3 -10 2 -21 -1 -24z m6732 -30
c-32 -2 -86 -2 -120 0 -35 2 -9 3 57 3 66 0 94 -1 63 -3z m1099 -50 c18 -11
44 -36 57 -56 23 -34 24 -39 12 -74 -10 -29 -20 -39 -44 -45 -17 -5 -34 -13
-37 -18 -7 -12 -57 -13 -70 -2 -6 4 -27 14 -49 21 -32 11 -40 11 -47 0 -5 -9
-2 -16 9 -21 9 -4 -2 -5 -24 -1 -23 3 -51 0 -62 -6 -12 -6 -32 -9 -44 -6 -20
5 -23 12 -23 50 1 63 18 73 108 63 40 -4 73 -12 75 -18 6 -18 40 -11 56 12 9
13 16 43 16 69 0 26 3 55 6 63 6 14 8 15 18 2 6 -8 26 -23 43 -33z m-7640
-145 c7 -14 10 -33 7 -42 -7 -19 -59 -47 -126 -70 -41 -15 -44 -15 -60 7 -50
64 24 139 132 134 27 -2 38 -8 47 -29z m4769 -215 c-10 -10 -19 5 -10 18 6 11
8 11 12 0 2 -7 1 -15 -2 -18z m-1862 -114 c-3 -5 -10 -7 -15 -3 -5 3 -7 10 -3
15 3 5 10 7 15 3 5 -3 7 -10 3 -15z m79 -75 c12 -12 -6 -34 -29 -34 -23 0 -32
18 -17 33 8 9 38 9 46 1z m-3463 -165 c0 -5 -7 -9 -15 -9 -15 0 -20 12 -9 23
8 8 24 -1 24 -14z m8637 -35 c-10 -10 -37 16 -37 34 0 13 4 12 22 -5 12 -13
19 -25 15 -29z m-6394 -89 c-4 -15 -36 -12 -41 3 -3 9 3 13 19 10 13 -1 23 -7
22 -13z m6130 -2 c2 -5 7 -19 10 -33 5 -20 1 -27 -18 -36 -13 -7 -26 -10 -27
-8 -2 1 -2 21 0 43 4 37 23 55 35 34z m-215 -81 c2 -22 -2 -34 -13 -38 -20 -8
-21 -7 -29 39 -7 36 -6 38 16 35 18 -2 24 -10 26 -36z m-148 -37 c0 -8 -9 -15
-20 -15 -25 0 -26 17 -2 23 9 3 18 5 20 6 1 0 2 -6 2 -14z m-6175 -94 c7 -12
-12 -24 -25 -16 -11 7 -4 25 10 25 5 0 11 -4 15 -9z m4731 -121 c176 -32 233
-54 534 -206 157 -79 297 -146 312 -150 l26 -6 -5 100 c-3 56 -1 108 5 117 8
16 34 17 277 17 147 -1 269 -3 270 -4 6 -6 9 -517 3 -523 -3 -3 -55 -6 -117
-7 -118 -2 -133 -10 -91 -46 17 -13 40 -17 113 -17 l92 0 3 -99 3 -98 -50 36
c-27 20 -52 33 -55 28 -6 -10 32 -58 139 -178 98 -110 186 -196 192 -190 7 7
-23 58 -54 91 -16 17 -39 45 -52 63 -13 19 -34 46 -48 60 -23 25 -23 29 -19
156 2 72 5 133 5 136 1 3 125 5 276 5 234 0 277 -2 285 -15 6 -9 9 -124 7
-270 l-2 -255 -172 -3 c-95 -1 -173 -6 -173 -11 0 -28 36 -35 179 -36 80 -1
151 -4 157 -8 8 -4 10 -60 8 -170 -3 -133 -1 -168 11 -183 14 -18 15 -17 16
16 7 248 11 326 19 335 9 10 563 5 574 -5 7 -7 9 -467 2 -498 -3 -12 -8 -27
-11 -32 -4 -6 -84 -10 -206 -10 -109 0 -199 -4 -199 -9 0 -27 37 -33 219 -39
l188 -5 5 -95 c9 -159 -5 -174 -118 -126 -39 16 -68 24 -74 18 -5 -5 19 -41
60 -88 89 -103 120 -161 131 -244 7 -59 5 -76 -17 -144 -14 -43 -30 -78 -35
-78 -4 0 -6 -7 -3 -15 5 -13 -60 -132 -81 -147 -5 -4 -13 -2 -17 5 -6 9 -10 8
-18 -3 -8 -13 -10 -12 -10 4 0 15 -12 7 -52 -34 -46 -47 -53 -51 -64 -36 -9
12 -14 14 -19 5 -5 -8 -23 -9 -59 -4 -28 4 -68 7 -88 7 -29 0 -35 3 -31 16 5
12 1 14 -25 9 -24 -5 -32 -3 -32 8 0 8 -5 15 -10 15 -6 0 -20 11 -32 25 -29
33 -65 33 -78 0 -5 -14 -19 -29 -29 -33 -11 -4 -19 -11 -18 -17 1 -5 -8 -11
-20 -13 -13 -2 -29 -12 -36 -23 -8 -10 -28 -24 -46 -30 -35 -12 -58 -53 -42
-73 5 -6 11 -22 13 -36 2 -20 -2 -26 -19 -28 -13 -2 -29 -12 -36 -22 -7 -11
-31 -21 -59 -25 -30 -5 -53 -15 -67 -31 -11 -13 -31 -24 -44 -24 -13 0 -32 -7
-43 -15 -28 -21 -34 -18 -34 15 0 29 -13 40 -25 20 -3 -5 -15 -10 -26 -10 -20
0 -23 -10 -13 -47 6 -24 38 -31 49 -13 15 25 21 -3 9 -40 -13 -37 -12 -42 7
-61 11 -11 42 -28 67 -37 l47 -17 -60 -3 c-60 -3 -220 23 -242 40 -14 11 -27
-7 -19 -28 9 -24 -28 1 -49 32 -17 26 -37 28 -88 8 -17 -6 -18 -5 -6 14 7 12
11 23 9 24 -41 30 -94 58 -109 58 -11 0 -35 -6 -53 -14 -84 -37 -148 -59 -154
-53 -12 12 7 25 65 41 99 28 107 60 17 71 -54 7 -80 0 -108 -29 -14 -13 -68
-11 -68 3 0 3 15 13 33 21 17 8 31 20 30 25 -2 6 -26 23 -55 38 -29 16 -58 39
-65 51 -14 26 -82 58 -158 74 -57 12 -178 27 -385 48 -181 18 -183 18 -188 32
-5 16 -23 16 -20 0 3 -12 -59 -30 -79 -23 -19 6 -16 25 4 25 28 0 1 18 -32 21
-32 3 -55 -6 -55 -22 0 -5 7 -9 16 -7 10 2 19 -3 21 -9 3 -9 -6 -13 -29 -13
-30 0 -35 4 -52 45 -13 34 -25 47 -45 51 -77 17 -110 28 -153 50 -26 13 -54
24 -63 24 -9 0 -27 7 -40 16 -14 9 -32 14 -40 11 -8 -4 -28 -1 -45 5 -23 8
-35 7 -43 -1 -6 -6 -16 -11 -21 -11 -6 0 -5 5 1 11 15 15 5 80 -14 95 -8 7
-22 10 -33 7 -10 -3 -33 5 -49 17 -39 27 -58 18 -36 -17 14 -20 14 -27 3 -41
-11 -14 -11 -15 7 -8 11 5 29 9 40 10 16 1 19 -4 17 -24 -5 -34 -6 -34 -41
-17 -26 13 -32 13 -42 1 -6 -8 -8 -14 -3 -14 5 0 3 -4 -5 -9 -9 -6 -11 -16 -7
-27 7 -18 8 -18 20 -1 7 9 18 17 25 17 15 0 14 -25 -3 -39 -18 -15 -29 -71
-16 -86 8 -9 4 -14 -16 -19 -31 -8 -44 2 -47 33 -1 16 -8 21 -28 21 -15 0 -29
-6 -32 -12 -3 -10 -9 -10 -26 0 -28 16 -73 15 -97 -3 -16 -13 -17 -16 -4 -25
8 -5 26 -10 40 -10 14 0 35 -7 46 -15 12 -8 24 -11 28 -8 3 3 6 -1 6 -10 0
-10 -7 -17 -16 -17 -23 0 -11 -24 14 -28 31 -5 27 -22 -4 -22 -21 0 -23 -2
-12 -13 7 -7 21 -16 31 -20 22 -8 22 -24 -2 -32 -10 -3 -21 -15 -24 -25 -3
-11 -13 -20 -23 -20 -16 0 -16 -1 1 -20 21 -24 41 -26 49 -5 10 27 25 16 17
-13 -7 -26 -41 -45 -41 -22 0 6 -5 8 -10 5 -14 -9 -60 35 -60 57 0 20 -23 26
-88 26 -27 0 -41 -5 -39 -12 2 -6 21 -11 43 -11 29 0 39 -4 42 -18 4 -19 -13
-23 -23 -6 -5 7 -14 4 -27 -7 -10 -10 -31 -18 -45 -19 -44 0 -40 -25 3 -25
l38 0 -43 -32 c-36 -26 -46 -29 -62 -20 -23 14 -69 16 -69 2 0 -5 -6 -7 -14
-4 -8 3 -17 1 -21 -5 -3 -6 1 -11 9 -11 9 0 16 -6 16 -13 0 -15 -84 -42 -100
-32 -17 11 8 35 37 35 22 0 24 2 13 15 -7 8 -19 15 -28 15 -19 0 -52 -29 -52
-46 0 -7 -5 -14 -10 -16 -6 -2 -12 -21 -13 -42 -2 -22 -8 -41 -15 -44 -7 -2
-12 1 -12 7 0 17 -27 13 -34 -5 -8 -22 -52 -15 -48 9 2 11 -4 17 -15 17 -15 0
-15 2 -4 9 11 7 12 13 4 23 -6 7 -14 23 -17 36 -6 16 -3 22 9 22 8 0 19 -10
24 -22 12 -30 47 -62 60 -53 17 10 13 56 -6 78 -16 17 -16 20 -2 30 9 7 14 18
11 26 -3 8 4 21 14 29 17 13 16 14 -16 7 -19 -4 -43 -8 -53 -8 -20 -1 -34 -36
-18 -47 21 -13 -15 -32 -48 -25 -16 3 -61 8 -99 10 -43 2 -80 10 -96 20 -20
13 -29 14 -46 5 -12 -6 -27 -9 -34 -7 -17 7 -44 -15 -57 -49 l-11 -29 -16 45
c-8 25 -22 51 -31 58 -14 11 -14 14 7 28 12 9 22 20 22 25 0 5 -36 9 -80 9
-64 0 -80 3 -80 15 0 9 9 15 25 15 15 0 25 6 25 14 0 15 -24 39 -32 31 -3 -3
-11 1 -18 10 -9 11 -9 15 -1 15 7 0 9 5 6 10 -3 6 -15 10 -26 10 -17 0 -15 6
18 45 35 42 65 56 77 36 3 -5 -7 -14 -24 -19 -25 -9 -29 -16 -27 -41 2 -37 13
-40 21 -6 6 25 39 35 51 15 3 -5 16 -10 28 -10 20 1 20 2 -5 16 -28 15 -38 44
-15 44 6 0 18 4 26 9 12 8 13 12 1 25 -12 15 -14 15 -32 0 -17 -16 -19 -16
-32 1 -12 16 -13 16 -19 1 -7 -17 -67 -23 -67 -7 0 23 14 41 32 41 18 0 18 1
3 17 -15 15 -15 17 -1 25 11 6 14 17 10 32 -7 28 21 55 38 38 15 -15 48 -16
48 -2 0 6 -13 18 -29 28 -23 14 -27 21 -20 34 7 12 5 20 -8 27 -16 9 -16 12
-3 21 8 5 27 10 42 10 15 0 29 4 32 9 7 11 -18 33 -35 29 -8 -2 -12 9 -13 32
-1 29 3 36 22 38 30 5 46 36 27 52 -8 7 -15 25 -15 41 0 22 5 29 20 29 18 0
20 6 18 55 -2 45 2 58 21 79 13 14 28 23 33 20 13 -9 36 15 34 34 -2 9 -14 19
-27 23 l-24 6 28 13 c23 11 27 19 23 39 -3 14 -3 20 0 14 4 -10 12 -9 34 2 16
8 36 15 45 15 9 0 13 5 10 10 -3 6 -19 10 -34 10 -15 0 -30 3 -34 6 -11 12 18
44 40 44 13 0 32 9 43 20 11 11 27 20 36 20 10 0 14 6 10 15 -3 9 0 15 9 15
23 0 18 -25 -12 -54 -14 -14 -23 -29 -19 -33 3 -4 12 -1 18 5 7 7 22 12 34 12
24 0 48 -23 37 -34 -4 -4 -1 -11 7 -16 10 -6 17 -5 20 5 4 13 11 12 40 -4 54
-28 95 -35 110 -16 22 26 50 19 57 -16 7 -34 11 -34 92 -4 24 8 46 13 49 10
10 -9 -50 -55 -82 -62 l-29 -6 27 -14 c31 -16 71 -14 71 5 0 6 3 12 8 12 31 0
40 -2 29 -7 -6 -2 -10 -9 -6 -14 8 -13 51 -11 60 2 10 16 43 -29 44 -58 0 -13
9 -32 20 -43 11 -11 20 -26 20 -32 1 -13 53 -51 138 -100 43 -25 57 -28 152
-28 183 -2 255 -12 277 -38 15 -19 30 -24 88 -26 39 -2 107 3 152 12 80 14 82
14 108 -7 19 -14 42 -21 71 -21 24 0 44 -4 44 -9 0 -4 32 -18 72 -31 61 -19
86 -22 169 -17 100 5 169 27 169 53 0 7 -11 16 -25 20 -31 8 -32 20 -2 28 30
7 146 -11 172 -28 11 -7 39 -11 65 -8 38 3 49 9 67 37 12 18 19 36 16 39 -4 3
-28 6 -54 6 -26 0 -54 6 -61 13 -23 22 -63 35 -144 46 -43 6 -115 18 -159 26
-44 7 -127 21 -185 31 -71 11 -147 32 -233 65 -70 27 -132 49 -137 49 -21 0
-201 65 -280 102 -121 56 -256 108 -281 108 -66 0 -170 102 -184 181 -15 84
49 184 134 210 36 11 50 9 123 -15 46 -14 135 -38 198 -51 63 -14 183 -43 265
-65 83 -22 184 -47 225 -56 104 -21 283 -65 295 -72 5 -3 21 -7 35 -9 14 -1
50 -12 80 -24 30 -11 66 -23 80 -26 25 -4 59 -17 92 -34 27 -14 57 -11 88 8
32 19 42 59 28 111 -7 23 -6 38 1 45 19 19 12 34 -21 55 -18 12 -51 34 -73 49
-22 16 -60 37 -85 47 -25 10 -54 22 -65 27 -11 4 -63 24 -115 45 -52 20 -123
52 -158 71 -57 32 -129 63 -194 83 -30 9 -74 31 -271 134 -78 41 -174 85 -212
99 -104 37 -141 62 -165 113 -50 101 -12 208 94 268 52 30 100 39 156 27 120
-24 332 -85 490 -141 96 -34 216 -73 265 -85 129 -33 159 -45 370 -149 302
-149 403 -174 412 -103 3 22 0 27 -17 27 -11 0 -20 6 -20 13 0 7 -13 26 -30
42 -16 16 -30 35 -30 42 0 7 -4 13 -9 13 -12 0 -82 69 -106 104 -44 64 -51 76
-89 137 -21 35 -47 70 -59 79 -12 8 -82 47 -157 85 -74 39 -169 92 -210 119
-41 27 -131 78 -199 113 -69 35 -136 72 -150 82 -14 10 -53 32 -86 49 -76 38
-107 66 -134 119 -34 68 -23 137 30 191 62 63 170 76 355 42z m2658 -132 c22
-43 27 -90 31 -301 3 -157 1 -209 -8 -212 -19 -7 -435 -12 -507 -6 l-65 6 4
155 c1 85 4 205 6 265 l3 110 69 6 c37 3 155 4 261 3 193 -2 194 -2 206 -26z
m-609 8 c11 -4 13 -56 12 -265 -1 -163 -6 -262 -12 -264 -5 -2 -135 -5 -288
-6 l-278 -2 6 158 c3 87 8 210 10 273 2 63 3 115 4 115 227 0 536 -5 546 -9z
m-8545 -116 c0 -5 -4 -10 -10 -10 -5 0 -10 5 -10 10 0 6 5 10 10 10 6 0 10 -4
10 -10z m-20 -89 c0 -74 -10 -151 -20 -151 -12 0 -18 74 -7 88 6 8 6 12 -3 12
-9 0 -10 14 -5 53 8 59 13 70 26 62 5 -4 9 -32 9 -64z m9197 -506 c4 -246 3
-406 -2 -416 -9 -14 -572 -12 -581 3 -4 6 -7 48 -6 92 1 130 13 420 18 434 3
10 65 12 286 10 l283 -3 2 -120z m-8460 69 c-3 -3 -12 -4 -19 -1 -8 3 -5 6 6
6 11 1 17 -2 13 -5z m-47 -21 c0 -5 -14 -16 -30 -25 -38 -21 -40 -9 -2 14 33
20 32 20 32 11z m-110 -73 c-20 -13 -33 -13 -25 0 3 6 14 10 23 10 15 0 15 -2
2 -10z m4190 -205 c-7 -8 -22 -15 -33 -15 -25 0 -12 16 18 23 11 3 22 5 24 6
2 0 -2 -6 -9 -14z m-125 -55 c-19 -21 -65 -28 -65 -10 0 6 10 10 23 10 12 0
29 5 37 10 23 15 25 12 5 -10z m259 2 c7 -12 -6 -26 -36 -39 -23 -10 -28 -10
-28 2 0 7 10 21 22 29 25 18 35 20 42 8z m-2324 -67 c0 -8 -4 -15 -10 -15 -5
0 -7 7 -4 15 4 8 8 15 10 15 2 0 4 -7 4 -15z m50 -45 c0 -5 -2 -10 -4 -10 -3
0 -8 5 -11 10 -3 6 -1 10 4 10 6 0 11 -4 11 -10z m127 -140 c3 -11 14 -20 25
-20 14 0 18 -6 16 -27 -2 -21 4 -31 32 -49 19 -13 55 -38 80 -57 25 -19 55
-37 67 -41 11 -4 24 -13 27 -21 8 -21 -4 -19 -44 9 -19 13 -70 42 -112 65 -74
40 -80 42 -138 35 -33 -4 -60 -5 -60 -2 0 2 11 19 25 38 14 19 25 44 25 55 0
27 8 35 33 35 10 0 21 -9 24 -20z m1478 -40 c-3 -5 -13 -10 -21 -10 -8 0 -12
5 -9 10 3 6 13 10 21 10 8 0 12 -4 9 -10z m-1635 -64 c0 -2 3 -12 7 -21 5 -15
3 -16 -15 -6 -25 13 -29 31 -7 31 8 0 15 -2 15 -4z m-460 -116 c0 -5 -4 -10
-10 -10 -5 0 -10 5 -10 10 0 6 5 10 10 10 6 0 10 -4 10 -10z m38 -39 c11 -7
11 -9 -1 -14 -9 -3 -21 1 -27 9 -10 11 -10 14 1 14 8 0 20 -4 27 -9z m69 3
c-3 -3 -12 -4 -19 -1 -8 3 -5 6 6 6 11 1 17 -2 13 -5z m-107 -54 c0 -5 -7 -10
-15 -10 -8 0 -15 5 -15 10 0 6 7 10 15 10 8 0 15 -4 15 -10z m138 -41 c-2 -6
-8 -10 -13 -10 -5 0 -11 4 -13 10 -2 6 4 11 13 11 9 0 15 -5 13 -11z m-58 -23
c0 -11 -19 -15 -25 -6 -3 5 1 10 9 10 9 0 16 -2 16 -4z m70 -46 c0 -5 -7 -10
-16 -10 -8 0 -12 5 -9 10 3 6 10 10 16 10 5 0 9 -4 9 -10z m2240 0 c22 -12 17
-40 -14 -85 -11 -16 -20 -35 -18 -42 1 -7 -7 -22 -18 -33 -13 -13 -19 -28 -15
-40 3 -10 1 -21 -4 -24 -18 -12 -42 -69 -31 -76 7 -4 5 -16 -5 -36 -8 -16 -15
-34 -15 -40 0 -5 -13 -23 -30 -39 -23 -22 -27 -31 -18 -42 8 -10 7 -17 -7 -27
-12 -8 -16 -21 -13 -34 4 -13 -1 -27 -13 -38 -13 -12 -16 -21 -9 -34 8 -14 4
-20 -21 -30 -17 -8 -29 -19 -28 -29 3 -24 -11 -51 -27 -51 -22 0 -39 -52 -21
-62 38 -21 24 -111 -18 -122 -18 -5 -19 -7 -4 -22 15 -14 15 -19 -6 -57 -14
-28 -29 -43 -45 -45 -19 -3 -21 -1 -15 15 15 37 24 99 18 137 -4 27 -2 41 8
47 11 7 12 12 1 29 -7 11 -8 20 -4 20 10 0 42 65 42 86 0 9 9 27 20 41 11 14
20 34 20 45 0 10 10 38 22 61 12 23 21 46 19 52 -1 5 9 32 23 60 23 45 49 123
51 150 0 6 13 31 28 57 15 26 27 53 27 60 0 7 11 33 25 57 14 23 25 49 25 56
0 8 10 21 22 29 27 19 24 19 48 6z m-2350 -9 c0 -12 -46 -41 -54 -34 -8 9 24
43 41 43 7 0 13 -4 13 -9z m7 -67 c-3 -3 -12 -4 -19 -1 -8 3 -5 6 6 6 11 1 17
-2 13 -5z m139 -61 c-10 -10 -19 5 -10 18 6 11 8 11 12 0 2 -7 1 -15 -2 -18z
m2368 -22 c3 -5 -11 -11 -32 -14 -41 -5 -55 -1 -47 14 8 12 72 12 79 0z
m-2113 -18 c16 -10 29 -25 29 -34 0 -10 12 -27 26 -38 14 -11 26 -29 27 -40 0
-11 13 -25 26 -31 l26 -12 -25 -13 c-22 -12 -23 -14 -7 -20 11 -5 25 -1 36 9
15 14 20 14 29 3 9 -10 8 -17 0 -25 -9 -9 -8 -12 4 -12 9 0 19 7 22 16 4 10
15 14 33 12 21 -2 32 -12 46 -40 9 -21 23 -38 31 -38 7 0 19 -7 26 -15 10 -12
9 -16 -5 -21 -17 -7 -17 -8 1 -21 10 -7 31 -13 47 -13 22 0 28 -4 23 -15 -3
-9 1 -18 9 -22 12 -4 13 -9 4 -19 -9 -11 -7 -22 5 -48 9 -19 16 -41 16 -50 0
-29 62 -46 132 -36 35 5 66 6 70 2 14 -14 -10 -34 -38 -33 -79 2 -98 -1 -120
-18 -26 -21 -22 -31 13 -31 16 0 23 -6 23 -19 0 -27 -11 -32 -83 -36 -34 -1
-69 -3 -78 -4 -12 -1 -15 -8 -12 -25 3 -13 0 -27 -6 -30 -16 -10 -14 -26 3
-26 8 0 16 7 20 15 3 8 16 15 30 15 14 0 27 4 30 9 7 10 75 22 129 22 35 -1
49 14 30 32 -11 12 -9 58 4 68 15 13 62 -18 63 -40 0 -8 7 -22 15 -31 14 -15
14 -18 0 -30 -21 -17 -19 -37 6 -50 12 -7 18 -18 15 -26 -3 -8 1 -17 9 -20 20
-8 19 -24 0 -24 -9 0 -20 11 -25 25 -13 34 -36 31 -49 -5 -9 -28 -8 -32 14
-40 13 -5 31 -21 41 -35 13 -20 25 -25 55 -25 33 0 41 -4 51 -27 7 -16 27 -42
44 -59 18 -17 34 -39 36 -50 2 -11 13 -20 28 -22 34 -5 49 -20 30 -32 -17 -11
-129 -13 -154 -4 -9 3 -16 12 -16 20 0 8 -9 22 -20 31 -11 10 -20 22 -20 27 0
5 -8 15 -17 22 -17 13 -17 15 6 32 16 13 20 22 12 26 -6 4 -16 4 -22 1 -6 -4
-16 0 -22 9 -17 22 -96 25 -112 3 -12 -17 -37 -24 -33 -9 1 4 -1 17 -6 30 -7
21 -17 26 -44 23 -7 -1 -15 5 -18 13 -8 22 -61 -4 -85 -41 l-19 -31 36 -7 c25
-4 39 -2 44 6 5 6 15 9 24 6 18 -7 22 -27 6 -27 -16 0 -12 -22 6 -35 14 -9 14
-16 5 -34 -12 -22 -31 -20 -31 3 0 7 -11 23 -24 35 -25 23 -46 21 -46 -4 0 -9
-8 -11 -32 -6 -20 5 -45 3 -62 -4 -23 -10 -34 -9 -58 3 -25 12 -34 12 -53 2
-13 -7 -31 -10 -41 -6 -15 6 -15 9 5 30 12 13 21 30 19 37 -2 8 4 14 12 14 8
0 16 -9 18 -21 3 -19 6 -20 43 -10 30 8 45 7 59 -2 26 -16 28 -16 32 9 2 18
21 36 46 45 1 1 -4 14 -13 30 -8 16 -11 32 -6 37 12 12 101 17 101 6 0 -12 51
-11 70 1 13 9 12 12 -5 25 -11 8 -26 19 -32 25 -10 8 -13 6 -13 -10 0 -13 -7
-20 -20 -20 -11 0 -20 5 -20 11 0 7 -11 9 -26 6 -15 -3 -42 2 -62 10 -19 8
-37 11 -41 7 -3 -4 0 -9 7 -11 10 -4 9 -9 -4 -24 -21 -23 -44 -25 -44 -3 0 8
-4 13 -10 9 -5 -3 -7 -12 -3 -20 7 -20 -15 -45 -40 -45 -18 0 -19 5 -14 45 7
44 6 45 -22 45 -18 0 -35 9 -46 24 -14 18 -23 22 -35 16 -12 -6 -21 -3 -33 11
-25 29 -21 39 18 39 32 0 35 2 35 29 0 17 5 33 10 36 16 10 -8 35 -31 35 -20
0 -26 24 -9 35 6 3 10 15 10 26 0 18 6 19 108 14 103 -4 155 4 117 19 -9 3
-28 3 -41 0 -14 -4 -31 -1 -39 6 -13 11 -20 11 -39 0 -20 -10 -28 -9 -50 5
-18 12 -36 15 -60 11 -34 -6 -57 6 -36 19 7 5 5 12 -7 22 -13 10 -15 16 -5 19
6 3 12 14 12 24 0 25 50 37 62 15 5 -8 14 -13 19 -9 6 4 -1 18 -17 35 -24 25
-32 28 -70 22 -52 -7 -61 12 -14 28 16 6 28 15 25 20 -3 4 -12 6 -20 2 -23 -8
-70 6 -58 18 6 6 8 32 5 59 -4 40 -2 50 11 50 8 0 20 7 27 15 15 19 -2 20 -29
3 -39 -24 -65 36 -32 76 8 9 9 16 1 21 -18 11 -11 35 11 35 11 0 34 -8 50 -17z
m1529 -14 c10 -18 19 -20 68 -17 46 2 57 0 60 -13 2 -11 -11 -23 -36 -36 -34
-17 -46 -18 -89 -8 -39 9 -52 9 -62 -2 -12 -14 0 -18 42 -15 9 1 17 -3 17 -8
0 -6 -29 -10 -64 -10 -67 0 -81 -8 -81 -45 0 -26 -65 -43 -103 -25 l-27 12 40
23 c22 13 47 30 55 38 8 7 23 17 33 20 9 4 17 15 17 26 0 10 8 21 18 25 9 3
32 17 51 31 41 30 47 31 61 4z m210 -79 c0 -11 -7 -20 -15 -20 -8 0 -15 9 -15
20 0 11 7 20 15 20 8 0 15 -9 15 -20z m757 4 c-3 -3 -12 -4 -19 -1 -8 3 -5 6
6 6 11 1 17 -2 13 -5z m-2677 -109 c10 -12 9 -15 -8 -15 -11 0 -25 7 -32 15
-10 12 -9 15 8 15 11 0 25 -7 32 -15z m1726 -12 c-10 -10 -19 5 -10 18 6 11 8
11 12 0 2 -7 1 -15 -2 -18z m5079 -23 c3 -5 -3 -10 -15 -10 -12 0 -18 5 -15
10 3 6 10 10 15 10 5 0 12 -4 15 -10z m-5768 -97 c-18 -5 -18 -6 -1 -24 26
-28 11 -23 -16 6 l-23 25 29 -1 c18 -1 22 -3 11 -6z m2090 -39 c-3 -3 -12 -4
-19 -1 -8 3 -5 6 6 6 11 1 17 -2 13 -5z m-2017 -54 c0 -8 -8 -11 -62 -26 -21
-6 -24 17 -6 45 11 18 14 18 40 5 15 -8 28 -19 28 -24z m-200 5 c0 -9 -40 -45
-50 -45 -14 0 -13 23 2 38 12 12 48 17 48 7z m-215 -47 c-11 -6 -25 -18 -31
-26 -8 -11 -13 -12 -18 -4 -10 17 15 41 44 41 24 0 24 0 5 -11z m425 -14 c0
-9 -7 -14 -17 -12 -25 5 -28 28 -4 28 12 0 21 -6 21 -16z m-177 -20 c-3 -8 2
-20 11 -27 13 -9 14 -19 7 -43 -5 -17 -6 -44 -3 -59 9 -47 -18 -25 -56 46 -18
35 -38 70 -44 76 -12 14 -1 20 47 25 38 5 46 1 38 -18z m87 -156 c0 -19 -15
-24 -24 -10 -3 5 -2 19 1 31 4 17 8 19 14 9 5 -7 9 -21 9 -30z m5770 -83 c-12
-36 -25 -67 -30 -70 -4 -3 -25 -31 -45 -62 -39 -60 -113 -143 -127 -143 -17 0
-6 20 37 71 25 30 68 96 96 148 83 156 109 177 69 56z m-5820 14 c0 -5 -4 -9
-10 -9 -5 0 -10 7 -10 16 0 8 5 12 10 9 6 -3 10 -10 10 -16z m-656 -111 c7
-29 1 -36 -29 -30 -27 5 -30 13 -15 42 12 23 36 16 44 -12z m1352 -25 c-4 -9
-14 -13 -26 -10 -23 6 -27 -8 -5 -16 22 -9 13 -79 -13 -92 -11 -6 -27 -16 -35
-23 -12 -10 -17 -8 -29 10 -8 13 -18 41 -21 64 -6 37 -4 42 23 62 16 12 35 22
43 22 7 0 22 6 33 14 16 13 20 12 27 0 5 -9 6 -22 3 -31z m1787 13 c23 8 21
-9 -3 -31 -18 -16 -20 -16 -20 -2 0 12 -9 17 -30 17 -34 0 -37 6 -13 32 17 19
17 19 33 -2 10 -14 22 -19 33 -14z m-2975 -6 c18 -41 9 -51 -45 -46 -44 5 -73
16 -40 16 8 0 25 14 37 30 27 37 32 37 48 0z m2875 4 c9 -10 -4 -34 -19 -34
-8 0 -14 9 -14 20 0 19 19 27 33 14z m-1612 -59 c5 -33 -11 -67 -28 -61 -8 3
-19 6 -24 6 -18 0 -9 45 14 66 24 23 34 21 38 -11z m1812 18 c-7 -2 -19 -2
-25 0 -7 3 -2 5 12 5 14 0 19 -2 13 -5z m-136 -29 c-3 -3 -12 -4 -19 -1 -8 3
-5 6 6 6 11 1 17 -2 13 -5z m-219 -52 c2 -7 -3 -12 -12 -12 -9 0 -16 7 -16 16
0 17 22 14 28 -4z m166 -7 c9 -14 26 -25 39 -26 12 0 0 -7 -27 -14 -43 -12
-76 -11 -76 2 0 12 32 63 39 63 5 0 16 -11 25 -25z m-1946 -42 c54 -33 60
-137 12 -188 -30 -32 -69 -43 -163 -44 -81 0 -83 1 -48 42 12 14 13 22 4 36
-9 14 -6 29 14 72 14 30 37 66 51 81 22 24 31 27 66 22 23 -4 52 -13 64 -21z
m2077 7 c-3 -5 -10 -10 -16 -10 -5 0 -9 5 -9 10 0 6 7 10 16 10 8 0 12 -4 9
-10z m-3115 -10 c0 -5 -8 -10 -17 -10 -15 0 -16 2 -3 10 19 12 20 12 20 0z
m136 -5 c18 -14 17 -14 -14 -15 -19 0 -45 -9 -59 -20 -32 -25 -43 -25 -43 -2
0 12 14 23 43 34 55 20 50 20 73 3z m-246 -15 c0 -5 -7 -10 -15 -10 -8 0 -15
5 -15 10 0 6 7 10 15 10 8 0 15 -4 15 -10z m3180 -10 c0 -5 -4 -10 -10 -10 -5
0 -10 5 -10 10 0 6 5 10 10 10 6 0 10 -4 10 -10z m465 0 c-3 -5 -10 -10 -16
-10 -5 0 -9 5 -9 10 0 6 7 10 16 10 8 0 12 -4 9 -10z m-543 -32 c-15 -15 -26
-4 -18 18 5 13 9 15 18 6 9 -9 9 -15 0 -24z m465 10 c-3 -8 -6 -5 -6 6 -1 11
2 17 5 13 3 -3 4 -12 1 -19z m-327 8 c0 -3 -4 -8 -10 -11 -5 -3 -10 -1 -10 4
0 6 5 11 10 11 6 0 10 -2 10 -4z m3365 -6 c-3 -5 -10 -10 -16 -10 -5 0 -9 5
-9 10 0 6 7 10 16 10 8 0 12 -4 9 -10z m-6245 -20 c0 -13 -5 -17 -20 -13 -24
6 -77 -13 -105 -38 -27 -24 -79 -37 -73 -18 2 7 17 16 32 20 15 4 41 21 57 37
23 22 40 30 70 30 31 1 39 -3 39 -18z m80 10 c0 -5 -4 -10 -10 -10 -5 0 -10 5
-10 10 0 6 5 10 10 10 6 0 10 -4 10 -10z m1210 1 c0 -14 -18 -23 -30 -16 -6 4
-8 11 -5 16 8 12 35 12 35 0z m-1576 -40 c7 -11 -22 -23 -36 -15 -6 4 -5 10 3
15 18 11 26 11 33 0z m66 -19 c0 -5 -8 -16 -19 -26 -16 -14 -20 -15 -30 -2
-10 11 -8 17 6 25 22 13 43 14 43 3z m3616 -14 c-3 -24 -30 -36 -40 -19 -7 10
19 41 35 41 5 0 7 -10 5 -22z m-91 -17 c-6 -5 -23 -13 -40 -17 -27 -7 -29 -6
-16 9 7 10 25 17 39 17 16 0 22 -4 17 -9z m-1948 -21 c46 3 49 0 23 -20 -14
-10 -23 -20 -20 -22 3 -3 21 -14 40 -26 l34 -21 -27 -10 c-31 -12 -66 0 -68
22 -1 7 -2 19 -3 27 0 8 -13 16 -28 18 -32 4 -32 5 -16 32 9 14 16 16 25 9 6
-6 25 -10 40 -9z m-1307 -10 c0 -13 7 -20 20 -20 17 0 19 -3 10 -19 -11 -22
-44 -36 -60 -26 -7 4 -6 13 1 27 10 18 8 24 -12 39 l-24 19 33 0 c25 0 32 -4
32 -20z m-276 2 c6 -10 60 -9 94 2 12 4 30 5 41 1 31 -10 21 -85 -12 -85 -5 0
-2 9 8 20 16 18 16 20 1 26 -9 3 -23 1 -31 -6 -8 -7 -20 -8 -27 -3 -21 13 -98
12 -98 -2 0 -20 -44 -55 -59 -46 -9 6 -4 11 19 19 26 9 30 15 22 29 -17 29 25
73 42 45z m736 -2 c0 -5 -6 -10 -14 -10 -8 0 -16 -4 -18 -8 -5 -13 -68 -23
-68 -12 0 6 13 10 29 10 16 0 34 7 41 15 14 17 30 20 30 5z m1928 -24 c3 -12
-1 -17 -10 -14 -7 3 -15 13 -16 22 -3 12 1 17 10 14 7 -3 15 -13 16 -22z m715
-7 c-17 -17 -37 -1 -22 17 8 10 15 12 23 4 7 -7 7 -13 -1 -21z m-3518 -28 c0
-8 -4 -16 -10 -18 -16 -5 -38 14 -30 26 9 16 40 9 40 -8z m2730 9 c3 -5 -3
-10 -14 -10 -12 0 -21 5 -21 10 0 6 6 10 14 10 8 0 18 -4 21 -10z m-1859 -25
c2 -28 1 -29 -28 -14 -21 11 -21 12 -3 25 26 19 30 18 31 -11z m-78 -6 c4 -20
-63 -93 -77 -84 -15 9 -14 92 2 99 24 10 72 1 75 -15z m1794 -14 c6 -28 -12
-48 -38 -43 -28 5 -27 -18 2 -31 17 -7 24 -17 20 -26 -4 -11 2 -15 24 -15 25
0 30 -4 30 -25 0 -20 -5 -25 -25 -25 -17 0 -23 -4 -19 -14 3 -8 0 -17 -6 -21
-17 -10 -60 3 -60 19 0 18 -59 29 -76 15 -11 -9 -18 -8 -29 1 -12 10 -16 9
-21 -4 -6 -16 -44 -23 -44 -8 0 14 47 31 69 25 15 -4 30 2 46 17 31 29 24 40
-20 33 -23 -4 -35 -2 -35 6 0 6 18 12 43 12 39 1 40 2 12 9 -25 6 -27 8 -12
15 9 4 26 5 37 2 13 -3 20 0 20 10 0 18 50 73 66 73 7 0 14 -11 16 -25z
m-2058 9 c9 -3 16 -15 16 -25 0 -23 -4 -23 -35 -3 -35 23 -20 43 19 28z m996
2 c0 -3 -4 -8 -10 -11 -5 -3 -10 -1 -10 4 0 6 5 11 10 11 6 0 10 -2 10 -4z
m156 -5 c-10 -15 5 -41 23 -41 10 0 18 -7 18 -15 0 -19 -61 -49 -82 -41 -22 8
-18 43 5 49 17 4 19 11 14 31 -5 20 -2 26 11 26 9 0 14 -4 11 -9z m359 -2 c5
-7 25 -8 56 -4 47 7 65 -4 38 -20 -6 -4 -8 -13 -5 -21 4 -11 -6 -14 -42 -14
-27 0 -53 -5 -60 -12 -9 -9 -12 -9 -12 4 0 8 -9 27 -20 41 -11 14 -20 28 -20
31 0 11 59 6 65 -5z m752 -5 c9 -24 -11 -38 -37 -24 -17 9 -29 9 -51 0 -16 -7
-29 -16 -29 -21 0 -5 -10 -9 -21 -9 -18 0 -20 2 -8 16 10 12 10 17 0 23 -15
10 41 23 62 15 7 -2 24 0 38 5 34 14 39 13 46 -5z m283 1 c0 -8 -6 -15 -14
-15 -8 0 -16 7 -20 15 -4 10 1 15 14 15 11 0 20 -7 20 -15z m380 -1 c0 -14 -3
-14 -15 -4 -8 7 -15 14 -15 16 0 2 7 4 15 4 8 0 15 -7 15 -16z m118 3 c30 -12
30 -13 13 -36 -15 -20 -19 -21 -30 -7 -8 9 -20 16 -27 16 -14 0 -19 22 -7 33
9 10 16 9 51 -6z m1017 3 c-3 -5 -11 -10 -16 -10 -6 0 -7 5 -4 10 3 6 11 10
16 10 6 0 7 -4 4 -10z m-4155 -30 c11 -7 12 -12 3 -21 -13 -13 -33 -4 -33 17
0 16 9 18 30 4z m1770 -21 c0 -5 -13 -9 -30 -9 -29 0 -29 1 -13 20 13 14 20
17 30 8 7 -6 13 -14 13 -19z m-253 -5 c10 -15 28 -36 41 -49 12 -12 22 -30 22
-39 0 -9 5 -16 10 -16 6 0 10 9 10 20 0 11 1 20 3 20 1 0 16 -4 33 -9 26 -7
34 -5 50 13 10 11 18 24 16 29 -4 14 26 7 32 -8 4 -11 13 -14 32 -9 23 6 25 4
19 -15 -5 -15 -2 -21 10 -21 26 0 8 -17 -25 -24 -17 -3 -29 -10 -26 -15 3 -5
-1 -12 -10 -15 -13 -5 -15 -1 -12 17 4 19 0 23 -23 25 -23 2 -26 -1 -22 -18 4
-16 -2 -23 -32 -36 -27 -11 -41 -12 -48 -5 -6 6 -25 11 -41 11 -21 1 -37 9
-49 25 -16 23 -17 27 -3 47 22 31 20 43 -10 57 -19 8 -30 9 -39 1 -10 -8 -14
-7 -18 2 -4 13 28 37 50 38 7 0 20 -12 30 -26z m-457 8 c0 -13 -12 -22 -22
-16 -10 6 -1 24 13 24 5 0 9 -4 9 -8z m1820 -2 c0 -5 -4 -10 -10 -10 -5 0 -10
5 -10 10 0 6 5 10 10 10 6 0 10 -4 10 -10z m100 -30 c0 -5 -9 -10 -20 -10 -11
0 -20 5 -20 10 0 6 9 10 20 10 11 0 20 -4 20 -10z m1548 -2 c-5 -15 -64 -36
-102 -37 -16 -1 -44 -12 -61 -25 -24 -19 -35 -22 -44 -13 -8 8 -14 8 -23 -1
-14 -14 -28 -16 -28 -4 0 12 67 42 93 42 12 0 33 7 45 16 12 8 35 18 49 20 15
3 30 7 32 10 10 9 42 3 39 -8z m-4619 -4 c17 -4 31 -13 31 -20 0 -20 -40 -17
-55 3 -13 17 -14 17 -32 0 -11 -9 -28 -17 -39 -17 -14 1 -9 6 16 20 41 22 38
22 79 14z m2448 -2 c-12 -2 -17 -10 -14 -22 5 -21 -1 -31 -30 -47 -29 -16 -83
-17 -83 -1 0 6 -7 20 -17 30 -15 17 -15 18 11 18 15 0 29 6 32 14 4 10 22 14
62 13 31 0 49 -3 39 -5z m743 -2 c0 -5 -4 -10 -10 -10 -5 0 -10 5 -10 10 0 6
5 10 10 10 6 0 10 -4 10 -10z m-2791 -9 c11 -7 11 -10 0 -17 -17 -10 -179 -12
-179 -1 0 4 18 7 39 7 22 0 42 4 45 9 7 11 78 12 95 2z m886 -11 c3 -5 -3 -10
-15 -10 -12 0 -18 5 -15 10 3 6 10 10 15 10 5 0 12 -4 15 -10z m-735 -9 c0 -6
-4 -13 -10 -16 -5 -3 -10 1 -10 9 0 9 5 16 10 16 6 0 10 -4 10 -9z m570 -19
c0 -31 -34 -105 -44 -95 -8 8 -8 71 0 101 9 34 44 29 44 -6z m1674 3 c3 -8 1
-15 -4 -15 -6 0 -10 7 -10 15 0 8 2 15 4 15 2 0 6 -7 10 -15z m-1409 -5 c4 -6
-6 -10 -24 -10 -16 0 -42 -10 -58 -24 -28 -23 -66 -46 -77 -46 -19 0 0 29 32
50 56 38 114 51 127 30z m1128 -8 c15 -17 15 -18 -7 -17 -29 0 -41 10 -31 24
9 16 20 14 38 -7z m-2351 -30 c-18 -3 -21 -9 -19 -40 2 -34 -1 -37 -25 -40
-31 -4 -36 9 -13 28 8 6 17 22 21 33 11 38 25 49 42 35 13 -11 13 -13 -6 -16z
m1382 12 c12 -30 6 -44 -18 -44 -26 0 -39 20 -30 45 8 20 40 19 48 -1z m3266
-9 c0 -1 -7 -8 -15 -15 -13 -10 -15 -9 -15 8 0 15 5 20 15 16 8 -4 15 -7 15
-9z m-4845 -15 c3 -5 18 -10 33 -11 16 0 21 -3 12 -6 -8 -3 -23 -12 -32 -20
-32 -28 -76 5 -46 35 15 15 25 15 33 2z m1969 -5 c11 -8 27 -15 37 -15 28 0
30 -26 3 -38 -31 -15 -57 -5 -51 19 3 12 -2 20 -14 24 -11 4 -17 11 -14 16 8
12 17 11 39 -6z m2291 5 c-3 -5 -11 -10 -16 -10 -6 0 -7 5 -4 10 3 6 11 10 16
10 6 0 7 -4 4 -10z m-4035 -25 c-7 -8 -17 -15 -23 -15 -5 0 -2 9 8 20 21 23
35 19 15 -5z m2895 5 c7 -12 -12 -40 -27 -40 -16 0 -21 32 -7 41 18 12 26 11
34 -1z m142 -12 c-3 -8 -6 -5 -6 6 -1 11 2 17 5 13 3 -3 4 -12 1 -19z m-1327
8 c0 -3 -4 -8 -10 -11 -5 -3 -10 -1 -10 4 0 6 5 11 10 11 6 0 10 -2 10 -4z
m250 -21 c0 -21 -28 -31 -43 -16 -9 9 -8 14 3 21 22 14 40 12 40 -5z m-316 -4
c7 -11 -41 -24 -54 -16 -6 4 -10 10 -10 16 0 12 57 12 64 0z m516 1 c0 -10
-22 -32 -32 -32 -13 0 -9 28 5 33 19 8 27 8 27 -1z m799 -1 c16 -10 6 -31 -15
-31 -8 0 -14 9 -14 20 0 22 7 25 29 11z m-885 -32 c-8 -14 -34 -11 -34 4 0 8
3 17 7 20 9 9 34 -13 27 -24z m-672 6 c0 -5 -5 -11 -11 -13 -6 -2 -11 4 -11
13 0 9 5 15 11 13 6 -2 11 -8 11 -13z m448 5 c0 -5 -2 -10 -4 -10 -3 0 -8 5
-11 10 -3 6 -1 10 4 10 6 0 11 -4 11 -10z m-330 -9 c0 -6 -4 -13 -10 -16 -5
-3 -10 1 -10 9 0 9 5 16 10 16 6 0 10 -4 10 -9z"/>
<path d="M2400 6273 c0 -13 3 -14 11 -6 6 6 19 9 28 6 14 -4 14 -3 1 6 -22 16
-40 13 -40 -6z"/>
<path d="M2600 6095 c-15 -29 0 -55 31 -55 24 0 24 11 1 50 l-19 30 -13 -25z"/>
<path d="M2608 5882 c-50 -18 -51 -18 -127 -101 -76 -82 -84 -129 -24 -152 20
-7 31 -5 56 13 23 16 48 23 86 25 38 1 59 6 67 18 14 19 34 124 34 178 0 32
-3 37 -22 36 -13 0 -44 -8 -70 -17z"/>
<path d="M3382 4488 c-14 -14 -16 -88 -2 -88 5 0 12 11 16 24 3 12 20 30 37
39 27 13 29 16 10 16 -12 1 -25 6 -28 11 -8 13 -18 13 -33 -2z"/>
<path d="M2736 3259 c-11 -58 -6 -75 32 -111 38 -36 66 -47 136 -53 22 -2 43
-10 48 -19 5 -8 24 -23 42 -31 39 -19 91 -87 83 -109 -3 -8 10 -38 29 -67 19
-30 37 -71 41 -92 3 -23 20 -54 44 -81 22 -24 39 -49 39 -55 0 -11 41 -58 129
-147 42 -43 59 -55 46 -33 -4 5 0 25 9 43 12 25 13 41 6 67 -6 19 -7 49 -4 66
5 29 3 33 -14 33 -12 0 -29 12 -39 26 -29 42 -106 129 -112 127 -3 -1 -5 5 -3
13 2 9 -6 34 -16 57 -11 23 -22 50 -25 59 -3 9 -19 25 -34 34 -15 10 -44 34
-63 54 -19 20 -43 40 -52 43 -10 4 -18 11 -18 16 0 17 -85 61 -118 61 -25 0
-32 4 -32 19 0 10 -6 23 -13 29 -19 16 -57 3 -57 -20 0 -10 -4 -16 -10 -13 -5
3 -10 13 -10 22 0 25 -34 92 -46 93 -6 0 -14 -14 -18 -31z"/>
<path d="M4082 1113 c2 -10 10 -18 18 -18 8 0 16 8 18 18 2 12 -3 17 -18 17
-15 0 -20 -5 -18 -17z"/>
<path d="M4010 960 c0 -5 9 -10 21 -10 11 0 17 5 14 10 -3 6 -13 10 -21 10 -8
0 -14 -4 -14 -10z"/>
<path d="M5737 6063 c-12 -11 -8 -23 7 -23 8 0 16 7 20 15 5 15 -14 21 -27 8z"/>
<path d="M7122 1588 c3 -7 13 -15 22 -16 12 -3 17 1 14 10 -3 7 -13 15 -22 16
-12 3 -17 -1 -14 -10z"/>
<path d="M7982 1548 c-31 -20 -74 -23 -104 -7 -16 9 -23 8 -29 -2 -10 -15 23
-49 47 -49 8 0 14 -6 14 -12 0 -7 15 -23 34 -36 31 -21 41 -23 105 -16 58 5
73 11 85 29 18 27 18 91 1 105 -19 16 -123 7 -153 -12z"/>
<path d="M4950 1390 c0 -5 5 -10 10 -10 6 0 10 5 10 10 0 6 -4 10 -10 10 -5 0
-10 -4 -10 -10z"/>
<path d="M6940 1280 c0 -5 4 -10 9 -10 6 0 13 5 16 10 3 6 -1 10 -9 10 -9 0
-16 -4 -16 -10z"/>
<path d="M5430 1110 c0 -5 5 -10 10 -10 6 0 10 5 10 10 0 6 -4 10 -10 10 -5 0
-10 -4 -10 -10z"/>
<path d="M7228 1103 c-24 -6 -11 -33 17 -33 30 0 52 25 29 34 -17 6 -19 6 -46
-1z"/>
<path d="M7805 1076 c-20 -20 -40 -34 -45 -31 -15 9 -102 -8 -107 -22 -11 -27
8 -59 47 -81 35 -20 49 -22 101 -16 35 4 70 15 84 26 21 16 31 18 58 9 40 -12
153 -7 172 9 11 9 19 8 37 -4 28 -20 78 -21 78 -2 0 8 6 16 13 19 6 2 4 3 -7
1 -15 -2 -17 3 -14 32 3 29 1 34 -17 34 -11 0 -31 7 -43 16 -12 8 -22 12 -22
8 0 -3 -12 1 -26 11 -20 13 -56 18 -150 22 l-122 5 -37 -36z"/>
<path d="M5258 1073 c7 -3 16 -2 19 1 4 3 -2 6 -13 5 -11 0 -14 -3 -6 -6z"/>
<path d="M7315 1040 c-3 -5 1 -10 10 -10 9 0 13 5 10 10 -3 6 -8 10 -10 10 -2
0 -7 -4 -10 -10z"/>
<path d="M7580 1040 c-12 -8 -12 -10 3 -16 9 -3 25 -3 34 0 15 6 15 8 3 16 -8
6 -17 10 -20 10 -3 0 -12 -4 -20 -10z"/>
<path d="M5691 1022 c-7 -12 -9 -27 -6 -32 8 -13 85 -13 85 0 0 6 -8 10 -19
10 -10 0 -25 10 -33 22 l-15 22 -12 -22z"/>
<path d="M4930 1005 c0 -10 7 -15 18 -13 21 4 19 22 -2 26 -10 2 -16 -3 -16
-13z"/>
<path d="M5456 971 c-4 -7 -5 -15 -2 -18 9 -9 19 4 14 18 -4 11 -6 11 -12 0z"/>
<path d="M5657 903 c-4 -3 -7 -13 -7 -22 0 -12 3 -12 12 -3 7 7 20 12 31 12
10 0 15 5 12 10 -7 11 -38 13 -48 3z"/>
<path d="M6564 863 c-32 -4 -51 -34 -36 -57 4 -6 5 -36 3 -67 -2 -47 0 -57 16
-63 31 -13 72 -15 78 -5 4 5 17 9 31 9 51 0 57 83 11 151 -23 35 -41 40 -103
32z"/>
<path d="M4970 830 c0 -5 7 -10 16 -10 8 0 12 5 9 10 -3 6 -10 10 -16 10 -5 0
-9 -4 -9 -10z"/>
<path d="M4604 819 c-3 -6 -1 -16 5 -22 8 -8 11 -5 11 11 0 24 -5 28 -16 11z"/>
<path d="M5577 803 c-6 -34 -2 -40 17 -24 14 12 11 51 -4 51 -4 0 -10 -12 -13
-27z"/>
<path d="M6840 791 c0 -5 -24 -26 -52 -47 -77 -56 -87 -74 -39 -74 17 0 46 9
66 21 23 14 44 19 60 15 19 -5 25 -2 25 9 0 9 7 18 15 21 9 4 15 19 15 35 0
28 -2 29 -45 29 -25 0 -45 -4 -45 -9z"/>
<path d="M5385 780 c-3 -5 3 -10 14 -10 12 0 21 5 21 10 0 6 -6 10 -14 10 -8
0 -18 -4 -21 -10z"/>
<path d="M4827 744 c-22 -12 -38 -34 -23 -34 14 0 66 24 66 30 0 17 -15 18
-43 4z"/>
<path d="M4730 735 c0 -8 9 -15 20 -15 11 0 20 7 20 15 0 8 -9 15 -20 15 -11
0 -20 -7 -20 -15z"/>
<path d="M7628 742 c-29 -6 -20 -18 15 -20 17 0 50 -4 72 -7 35 -5 77 7 65 18
-7 6 -132 14 -152 9z"/>
<path d="M4661 731 c-7 -5 -9 -11 -4 -14 6 -4 19 0 29 8 15 11 16 14 4 15 -8
0 -21 -4 -29 -9z"/>
<path d="M5408 703 c7 -3 16 -2 19 1 4 3 -2 6 -13 5 -11 0 -14 -3 -6 -6z"/>
<path d="M5183 673 c-7 -2 -13 -9 -13 -15 0 -14 43 -6 48 10 4 12 -12 15 -35
5z"/>
<path d="M5037 649 c-4 -15 1 -23 19 -31 31 -14 38 -7 23 26 -15 31 -35 34
-42 5z"/>
<path d="M4633 643 c-7 -2 -13 -13 -13 -24 0 -14 7 -19 28 -19 15 0 34 5 42
10 13 8 12 11 -5 24 -21 16 -32 18 -52 9z"/>
<path d="M4790 640 c20 -13 43 -13 35 0 -3 6 -16 10 -28 10 -18 0 -19 -2 -7
-10z"/>
<path d="M5267 609 c-20 -46 -20 -49 -7 -49 6 0 10 5 10 11 0 19 33 38 65 40
l30 1 -28 8 c-16 5 -34 13 -41 19 -9 7 -16 0 -29 -30z"/>
<path d="M4940 621 c0 -25 17 -37 62 -45 50 -9 52 -9 56 2 2 6 -7 13 -20 17
-13 4 -31 16 -41 26 -23 25 -57 25 -57 0z"/>
<path d="M4766 611 c-3 -5 1 -12 10 -15 20 -8 29 -1 19 13 -8 13 -22 14 -29 2z"/>
<path d="M5474 596 c-11 -29 4 -49 31 -42 18 5 25 2 25 -9 0 -17 25 -21 35 -5
3 6 2 10 -4 10 -5 0 -16 12 -23 28 -15 31 -55 42 -64 18z"/>
<path d="M5580 590 c0 -5 4 -10 9 -10 6 0 13 5 16 10 3 6 -1 10 -9 10 -9 0
-16 -4 -16 -10z"/>
<path d="M4815 580 c-3 -5 3 -10 14 -10 12 0 21 5 21 10 0 6 -6 10 -14 10 -8
0 -18 -4 -21 -10z"/>
<path d="M5161 558 c-24 -17 -46 -39 -48 -49 -4 -13 -17 -19 -47 -21 -28 -2
-41 -8 -41 -18 0 -8 8 -16 18 -18 9 -2 17 1 17 7 0 6 5 11 12 11 6 0 8 -3 5
-7 -10 -10 13 -33 33 -33 26 0 45 27 31 44 -12 14 -5 46 10 46 17 0 69 43 69
57 0 18 -9 15 -59 -19z"/>
<path d="M5280 540 c0 -5 7 -10 16 -10 8 0 12 5 9 10 -3 6 -10 10 -16 10 -5 0
-9 -4 -9 -10z"/>
<path d="M4548 533 c-21 -2 -38 -9 -38 -15 0 -6 12 -8 30 -4 18 3 39 0 51 -7
16 -10 21 -9 29 3 11 18 4 30 -18 28 -9 -1 -34 -3 -54 -5z"/>
<path d="M5442 533 c-27 -5 -40 -29 -23 -46 8 -8 11 -5 11 12 0 21 3 23 36 16
28 -5 35 -3 32 7 -5 14 -21 18 -56 11z"/>
<path d="M4630 490 l-25 -7 25 -10 c29 -12 50 -7 50 13 0 15 -11 16 -50 4z"/>
<path d="M4745 490 c-3 -5 -1 -10 4 -10 6 0 11 5 11 10 0 6 -2 10 -4 10 -3 0
-8 -4 -11 -10z"/>
<path d="M4956 464 c-11 -29 -6 -34 34 -34 22 0 40 5 40 10 0 6 -9 10 -20 10
-11 0 -23 7 -26 15 -8 19 -20 19 -28 -1z"/>
<path d="M5275 461 c-3 -5 -1 -12 4 -15 12 -8 41 3 41 15 0 12 -37 12 -45 0z"/>
<path d="M5370 455 c7 -8 16 -15 20 -15 4 0 10 7 14 15 4 11 -2 15 -21 15 -21
0 -24 -2 -13 -15z"/>
<path d="M4767 453 c-12 -11 -8 -23 8 -23 8 0 15 7 15 15 0 16 -12 20 -23 8z"/>
<path d="M4676 441 c-3 -5 3 -11 14 -14 21 -5 32 1 24 14 -7 12 -31 11 -38 0z"/>
<path d="M5280 420 c0 -6 7 -13 15 -17 24 -9 27 1 5 15 -13 8 -20 8 -20 2z"/>
<path d="M4960 390 c0 -5 5 -10 10 -10 6 0 10 5 10 10 0 6 -4 10 -10 10 -5 0
-10 -4 -10 -10z"/>
<path d="M5225 370 c3 -5 8 -10 11 -10 2 0 4 5 4 10 0 6 -5 10 -11 10 -5 0 -7
-4 -4 -10z"/>
<path d="M7650 350 c0 -5 5 -10 10 -10 6 0 10 5 10 10 0 6 -4 10 -10 10 -5 0
-10 -4 -10 -10z"/>
<path d="M2738 1473 c7 -3 16 -2 19 1 4 3 -2 6 -13 5 -11 0 -14 -3 -6 -6z"/>
<path d="M2792 1363 c-6 -2 -10 -8 -7 -13 6 -10 55 0 55 11 0 10 -27 11 -48 2z"/>
<path d="M2950 1265 c0 -8 7 -15 15 -15 8 0 15 7 15 15 0 8 -7 15 -15 15 -8 0
-15 -7 -15 -15z"/>
<path d="M2818 1263 c7 -3 16 -2 19 1 4 3 -2 6 -13 5 -11 0 -14 -3 -6 -6z"/>
<path d="M2825 1220 c3 -5 12 -10 20 -10 8 0 17 5 20 10 4 6 -5 10 -20 10 -15
0 -24 -4 -20 -10z"/>
<path d="M2940 1189 c0 -19 -4 -21 -30 -15 -19 3 -29 2 -25 -4 9 -14 71 -23
102 -15 24 6 26 8 10 16 -9 6 -17 17 -17 24 0 8 -9 15 -20 15 -14 0 -20 -7
-20 -21z"/>
<path d="M3027 1194 c-13 -13 -7 -24 14 -24 11 0 19 5 17 12 -5 14 -22 21 -31
12z"/>
<path d="M2795 1179 c-10 -15 0 -21 27 -17 l23 3 -22 13 c-15 8 -24 9 -28 1z"/>
<path d="M2917 1024 c-3 -3 -26 -8 -53 -12 -56 -8 -77 -36 -23 -30 33 3 34 2
37 -34 2 -21 6 -38 10 -39 4 0 21 -2 39 -5 40 -5 53 13 18 26 -22 8 -24 13
-15 29 17 33 8 85 -13 65z"/>
<path d="M3108 1013 c7 -3 16 -2 19 1 4 3 -2 6 -13 5 -11 0 -14 -3 -6 -6z"/>
<path d="M3050 995 c0 -8 9 -15 20 -15 11 0 20 7 20 15 0 8 -9 15 -20 15 -11
0 -20 -7 -20 -15z"/>
<path d="M2800 941 c0 -12 -4 -21 -10 -21 -5 0 -10 -7 -10 -15 0 -8 5 -15 10
-15 6 0 10 4 10 10 0 5 11 12 26 16 31 8 29 38 -4 42 -17 3 -22 -2 -22 -17z"/>
<path d="M3255 880 c4 -6 11 -8 16 -5 14 9 11 15 -7 15 -8 0 -12 -5 -9 -10z"/>
<path d="M2800 870 c0 -5 7 -10 15 -10 8 0 15 5 15 10 0 6 -7 10 -15 10 -8 0
-15 -4 -15 -10z"/>
<path d="M2913 873 c-18 -6 -16 -23 1 -23 17 0 30 16 19 23 -5 2 -14 2 -20 0z"/>
<path d="M3418 663 c7 -3 16 -2 19 1 4 3 -2 6 -13 5 -11 0 -14 -3 -6 -6z"/>
<path d="M3485 581 c-3 -5 -1 -12 5 -16 12 -7 30 2 30 16 0 12 -27 12 -35 0z"/>
<path d="M3860 466 c0 -9 7 -16 16 -16 17 0 14 22 -4 28 -7 2 -12 -3 -12 -12z"/>
<path d="M2090 3365 c-56 -15 -150 -57 -150 -68 0 -4 7 -10 16 -14 11 -4 5
-10 -23 -19 -49 -18 -63 -17 -39 1 24 18 18 26 -13 18 -16 -4 -21 -11 -18 -24
3 -13 -5 -22 -28 -33 -18 -9 -38 -16 -45 -16 -7 0 -26 -7 -43 -15 -37 -17
-184 -68 -276 -95 -35 -11 -75 -27 -88 -35 -14 -9 -48 -23 -76 -32 -29 -8 -72
-25 -97 -38 -25 -13 -77 -39 -117 -58 -68 -33 -140 -87 -117 -87 5 0 14 4 19
8 6 5 32 17 58 26 26 10 60 28 75 41 15 12 47 29 72 38 25 8 81 31 125 50 44
18 112 44 150 56 62 19 192 68 280 106 78 32 215 62 215 45 0 -17 18 -11 25 9
3 10 26 26 51 36 25 9 48 25 52 34 3 9 15 28 26 43 11 15 18 29 15 31 -2 2
-24 -1 -49 -8z m-16 -54 c7 -10 -38 -31 -67 -31 -18 1 -16 4 13 20 40 22 47
23 54 11z"/>
<path d="M2152 3209 c-32 -28 -33 -31 -20 -59 16 -36 48 -41 48 -7 0 13 5 28
12 35 9 9 9 12 0 12 -7 0 -12 7 -12 15 0 8 5 15 10 15 6 0 10 5 10 10 0 17
-13 11 -48 -21z"/>
<path d="M2405 3130 c-3 -5 -1 -10 4 -10 6 0 11 5 11 10 0 6 -2 10 -4 10 -3 0
-8 -4 -11 -10z"/>
<path d="M2153 3053 c-8 -16 -9 -31 -4 -37 5 -6 11 -22 13 -35 1 -14 9 -26 16
-29 11 -3 13 9 10 59 -4 69 -16 83 -35 42z"/>
<path d="M2202 2918 c-7 -7 -12 -18 -12 -25 0 -7 -16 -27 -35 -44 -21 -19 -35
-42 -35 -56 0 -31 14 -29 40 4 12 15 29 28 38 28 13 0 17 10 18 36 1 20 4 41
8 47 9 15 -9 23 -22 10z"/>
<path d="M2347 2864 c-4 -4 -7 -14 -7 -23 0 -11 3 -12 11 -4 6 6 10 16 7 23
-2 6 -7 8 -11 4z"/>
<path d="M2380 2845 c0 -14 5 -25 10 -25 6 0 10 11 10 25 0 14 -4 25 -10 25
-5 0 -10 -11 -10 -25z"/>
<path d="M2330 2730 c0 -5 7 -10 15 -10 8 0 15 5 15 10 0 6 -7 10 -15 10 -8 0
-15 -4 -15 -10z"/>
<path d="M2176 2672 c-8 -25 14 -74 30 -68 7 3 18 -2 25 -10 14 -17 39 -1 39
25 -1 46 -82 92 -94 53z"/>
<path d="M2390 2680 c0 -5 4 -10 9 -10 6 0 13 5 16 10 3 6 -1 10 -9 10 -9 0
-16 -4 -16 -10z"/>
<path d="M1930 2656 c0 -9 5 -16 10 -16 6 0 10 4 10 9 0 6 -4 13 -10 16 -5 3
-10 -1 -10 -9z"/>
<path d="M1886 2611 c-3 -5 1 -12 10 -15 11 -4 14 -13 10 -30 -9 -34 13 -44
36 -16 18 22 17 23 -5 46 -23 25 -42 30 -51 15z"/>
<path d="M2360 2579 c0 -5 5 -7 10 -4 6 3 10 8 10 11 0 2 -4 4 -10 4 -5 0 -10
-5 -10 -11z"/>
<path d="M1835 2520 c-4 -6 -3 -24 0 -42 7 -30 6 -30 -24 -26 -27 4 -31 2 -31
-18 0 -19 7 -24 38 -30 20 -4 45 -11 55 -16 10 -5 21 -7 24 -5 3 3 -9 13 -26
22 -35 17 -41 35 -12 35 21 0 36 40 26 71 -7 20 -39 26 -50 9z"/>
<path d="M2244 2495 c-10 -8 -14 -15 -7 -15 19 0 43 11 43 21 0 13 -14 11 -36
-6z"/>
<path d="M2566 2435 c-8 -8 -35 -18 -60 -21 -25 -4 -53 -15 -62 -25 -11 -12
-31 -19 -54 -19 -37 0 -38 -1 -38 -40 0 -22 1 -40 2 -40 11 0 86 36 108 52 36
25 101 22 106 -5 3 -16 -1 -17 -32 -11 l-36 6 0 -60 c0 -34 5 -64 11 -67 16
-10 49 24 41 43 -5 14 -3 15 10 4 14 -11 18 -8 32 19 21 42 21 89 0 89 -28 0
-11 35 19 38 33 4 34 8 5 33 -28 23 -33 23 -52 4z m4 -156 c0 -5 -4 -9 -10 -9
-5 0 -10 7 -10 16 0 8 5 12 10 9 6 -3 10 -10 10 -16z"/>
<path d="M2357 2423 c-12 -11 -8 -23 8 -23 8 0 15 7 15 15 0 16 -12 20 -23 8z"/>
<path d="M1985 2380 c-3 -5 -1 -10 4 -10 6 0 11 5 11 10 0 6 -2 10 -4 10 -3 0
-8 -4 -11 -10z"/>
<path d="M2570 2204 c-10 -12 -8 -14 14 -14 28 0 35 14 12 23 -8 3 -20 -1 -26
-9z"/>
<path d="M1670 2200 c0 -5 9 -10 20 -10 11 0 20 5 20 10 0 6 -9 10 -20 10 -11
0 -20 -4 -20 -10z"/>
<path d="M1230 1919 c0 -7 -8 -18 -17 -25 -24 -17 -10 -29 16 -14 21 11 30 50
11 50 -5 0 -10 -5 -10 -11z"/>
<path d="M324 1806 c-10 -8 -16 -17 -13 -20 3 -3 14 3 24 14 21 23 17 26 -11
6z"/>
<path d="M290 1747 c0 -9 -12 -22 -27 -29 -14 -7 -31 -22 -37 -33 -20 -36 -56
-49 -56 -20 0 8 -9 19 -21 25 -16 9 -18 14 -9 26 10 11 8 15 -11 22 -19 8 -26
5 -37 -16 -11 -22 -11 -27 3 -34 25 -14 18 -31 -10 -24 -17 4 -37 0 -55 -11
l-30 -17 0 -818 0 -818 814 0 c707 1 815 3 820 15 3 9 19 15 41 15 24 0 35 4
35 15 0 11 -11 15 -41 15 -22 0 -38 4 -35 9 3 4 16 6 28 4 17 -3 36 9 71 42
26 25 47 48 47 51 0 13 -52 54 -68 54 -13 0 -11 -4 7 -16 16 -12 20 -19 12
-27 -8 -8 -16 -6 -28 6 -15 14 -16 22 -5 49 6 17 9 34 7 38 -3 4 -52 6 -109 5
-75 -2 -110 1 -123 10 -17 13 -16 14 10 24 16 6 33 11 38 11 5 0 9 11 9 25 0
18 7 26 25 31 14 3 25 10 25 15 0 12 -27 11 -35 -1 -8 -13 -42 -13 -50 -1 -9
15 24 41 52 41 21 0 24 2 13 15 -14 17 -50 20 -50 4 0 -5 -4 -8 -10 -4 -5 3
-7 12 -4 19 4 10 -2 12 -21 9 -14 -3 -28 -9 -31 -14 -9 -15 -39 -10 -60 10
-15 13 -25 16 -37 9 -24 -13 -21 -31 3 -25 11 3 23 1 26 -5 7 -10 -26 -88 -38
-88 -3 0 -12 32 -18 70 -12 72 -15 76 -39 61 -8 -5 -24 -6 -36 -1 -12 4 -29 4
-39 -2 -25 -14 -32 -2 -13 20 10 10 17 24 17 30 0 6 10 18 22 26 l22 16 -22 0
c-18 0 -22 4 -18 18 16 54 17 110 4 118 -8 5 -18 24 -21 43 -6 28 -3 36 18 53
14 11 25 27 25 37 0 9 6 23 12 29 10 10 10 17 0 33 -10 15 -10 24 -2 34 8 10
5 23 -11 54 -11 23 -25 41 -30 41 -5 0 -9 6 -9 14 0 8 -4 17 -8 20 -15 9 -52
-6 -52 -20 0 -8 -4 -14 -10 -14 -5 0 -10 -8 -10 -19 0 -10 -6 -24 -14 -31 -8
-6 -16 -23 -18 -38 -2 -18 -10 -28 -23 -30 -16 -3 -18 -1 -8 9 7 7 13 22 13
34 0 12 6 27 13 34 10 11 8 12 -10 7 -22 -7 -41 8 -23 19 5 3 10 17 10 30 0
13 4 27 10 30 14 9 -17 65 -35 65 -20 0 -19 39 1 61 26 29 9 39 -58 32 -60 -6
-60 -6 -53 18 9 30 17 37 22 22 3 -7 11 -13 18 -13 23 0 46 49 51 113 4 60 3
64 -21 75 -31 14 -34 51 -5 59 24 6 17 23 -10 23 -19 0 -30 -19 -30 -54 0 -42
-22 -58 -91 -65 -55 -5 -64 -9 -64 -26 0 -17 6 -20 38 -18 49 3 48 -13 -3 -27
-21 -6 -43 -17 -47 -24 -4 -8 -17 -16 -28 -18 -15 -3 -19 -11 -18 -32 1 -15
-9 -45 -21 -65 -17 -26 -22 -46 -19 -66 l6 -28 -51 7 c-31 4 -53 3 -57 -4 -8
-12 -45 -13 -45 -1 0 5 10 11 21 14 15 4 20 11 16 21 -4 9 -2 16 4 16 6 0 7 5
4 10 -4 6 -21 8 -38 5 -37 -6 -78 18 -60 36 7 7 18 6 36 -2 31 -14 54 -1 59
34 2 16 10 22 28 23 67 3 67 3 46 19 -11 8 -28 15 -38 15 -9 0 -22 9 -28 19
-8 16 -6 20 12 23 17 2 24 13 30 42 9 44 -1 62 -28 52 -12 -5 -15 -14 -10 -36
5 -26 2 -32 -22 -43 -34 -15 -42 -25 -42 -58 0 -33 -34 -45 -67 -23 -32 20
-29 34 10 35 26 1 27 2 7 6 -46 7 -54 13 -42 25 14 14 16 38 3 38 -5 0 -22 5
-37 10 -21 8 -24 14 -16 22 20 20 14 27 -30 30 -47 3 -61 22 -23 32 60 15 9
67 -58 59 -51 -7 -71 -21 -39 -29 24 -7 28 -19 10 -30 -7 -4 -18 2 -26 14 -8
12 -20 22 -26 22 -7 0 -12 16 -12 38 -1 30 6 43 35 69 20 18 44 33 55 33 15 0
17 5 11 28 -5 22 -4 25 6 15 7 -7 24 -13 37 -13 21 0 23 3 17 27 -8 34 -4 30
-38 38 -21 6 -27 4 -27 -8z m675 -348 c11 -17 -1 -21 -15 -4 -8 9 -8 15 -2 15
6 0 14 -5 17 -11z m-645 -8 c0 -12 -29 -23 -41 -15 -5 3 -7 10 -4 15 8 12 45
12 45 0z m662 -235 c5 -26 -7 -46 -29 -46 -16 0 -17 34 -2 61 12 24 25 18 31
-15z m-11 -77 c7 -14 5 -23 -11 -39 -21 -21 -29 -23 -54 -14 -13 5 -12 11 5
44 22 41 41 44 60 9z m-291 1 c0 -5 -9 -10 -21 -10 -11 0 -17 5 -14 10 3 6 13
10 21 10 8 0 14 -4 14 -10z m248 -113 c2 -10 -4 -20 -13 -23 -21 -9 -28 0 -20
26 8 24 28 22 33 -3z m152 -107 c0 -5 -4 -10 -9 -10 -6 0 -13 5 -16 10 -3 6 1
10 9 10 9 0 16 -4 16 -10z m375 -520 l20 -8 -20 -7 c-11 -4 -33 -12 -48 -17
-15 -6 -31 -8 -34 -4 -4 4 3 9 16 13 13 3 20 11 17 19 -6 16 17 18 49 4z m160
-122 c-4 -13 -15 -29 -26 -37 -10 -7 -19 -22 -19 -32 0 -25 -2 -25 -59 8 -2 2
2 9 8 17 10 12 8 19 -7 34 -11 11 -19 22 -17 24 2 2 32 5 65 6 60 3 61 2 55
-20z m25 -119 c0 -5 -7 -9 -16 -9 -11 0 -15 -6 -11 -20 7 -26 -10 -26 -18 0
-3 11 -15 20 -26 20 -10 0 -19 4 -19 10 0 5 13 7 29 4 16 -4 32 -1 35 5 8 12
26 5 26 -10z"/>
<path d="M1230 1720 c-11 -7 -12 -11 0 -25 16 -20 36 -4 23 19 -5 10 -13 12
-23 6z"/>
<path d="M950 1709 c0 -5 5 -7 10 -4 6 3 10 8 10 11 0 2 -4 4 -10 4 -5 0 -10
-5 -10 -11z"/>
<path d="M870 1700 c0 -5 7 -10 15 -10 8 0 15 5 15 10 0 6 -7 10 -15 10 -8 0
-15 -4 -15 -10z"/>
<path d="M928 1648 c-32 -11 -35 -20 -13 -38 8 -7 15 -19 15 -26 0 -17 24 -18
49 -2 18 11 18 12 -1 45 -11 18 -21 33 -21 32 -1 0 -14 -5 -29 -11z"/>
<path d="M1255 1640 c3 -5 10 -10 16 -10 5 0 9 5 9 10 0 6 -7 10 -16 10 -8 0
-12 -4 -9 -10z"/>
<path d="M610 1622 c0 -4 5 -13 12 -20 9 -9 0 -16 -35 -31 -51 -22 -59 -36
-27 -46 15 -5 19 -12 15 -25 -10 -32 31 -36 70 -6 18 14 41 26 49 26 18 0 21
16 6 25 -6 4 -9 14 -8 23 2 12 -5 18 -25 20 -23 3 -28 8 -24 23 4 14 0 19 -14
19 -10 0 -19 -4 -19 -8z"/>
<path d="M2293 1623 c9 -2 23 -2 30 0 6 3 -1 5 -18 5 -16 0 -22 -2 -12 -5z"/>
<path d="M1236 1591 c-4 -7 -5 -15 -2 -18 9 -9 19 4 14 18 -4 11 -6 11 -12 0z"/>
<path d="M2190 1570 c0 -5 5 -10 11 -10 5 0 7 5 4 10 -3 6 -8 10 -11 10 -2 0
-4 -4 -4 -10z"/>
<path d="M475 1550 c-4 -6 6 -10 22 -10 22 0 25 2 13 10 -19 12 -27 12 -35 0z"/>
<path d="M810 1551 c0 -5 7 -12 16 -15 22 -9 24 -8 24 9 0 8 -9 15 -20 15 -11
0 -20 -4 -20 -9z"/>
<path d="M1020 1529 c0 -5 5 -7 10 -4 6 3 10 8 10 11 0 2 -4 4 -10 4 -5 0 -10
-5 -10 -11z"/>
<path d="M1200 1520 c0 -6 8 -14 18 -18 9 -4 17 -14 17 -22 0 -29 38 -17 46
14 10 36 4 44 -21 28 -12 -7 -21 -8 -25 -2 -8 13 -35 13 -35 0z"/>
<path d="M1191 1416 c-10 -12 -8 -19 8 -35 39 -39 66 -18 41 30 -13 23 -33 25
-49 5z"/>
<path d="M1098 1383 c7 -3 16 -2 19 1 4 3 -2 6 -13 5 -11 0 -14 -3 -6 -6z"/>
<path d="M1200 1333 c-34 -6 -50 -30 -44 -63 4 -17 -1 -38 -14 -60 -11 -18
-18 -39 -15 -46 3 -7 -2 -21 -11 -29 -35 -35 -18 -51 49 -46 35 3 44 10 67 49
l17 29 -44 -2 c-38 -1 -45 1 -45 18 0 15 5 18 24 13 30 -7 56 2 56 20 0 9 -11
14 -30 14 -16 0 -30 5 -30 10 0 6 14 13 30 17 28 5 43 23 20 23 -5 0 -7 13 -3
30 3 17 4 29 2 29 -2 -1 -15 -4 -29 -6z"/>
<path d="M1997 1333 c-14 -13 -6 -23 18 -23 28 0 34 15 9 24 -19 7 -19 7 -27
-1z"/>
<path d="M1403 1304 c-8 -4 -9 -13 -3 -29 6 -15 6 -27 0 -30 -17 -11 -11 -25
11 -25 14 0 19 6 17 18 -1 9 1 23 6 30 9 14 1 42 -11 41 -4 0 -13 -3 -20 -5z"/>
<path d="M2230 1260 c0 -5 5 -10 10 -10 6 0 10 5 10 10 0 6 -4 10 -10 10 -5 0
-10 -4 -10 -10z"/>
<path d="M2468 1263 c7 -3 16 -2 19 1 4 3 -2 6 -13 5 -11 0 -14 -3 -6 -6z"/>
<path d="M1730 1250 c0 -5 7 -10 15 -10 8 0 15 5 15 10 0 6 -7 10 -15 10 -8 0
-15 -4 -15 -10z"/>
<path d="M2070 1230 c0 -5 5 -10 10 -10 6 0 10 5 10 10 0 6 -4 10 -10 10 -5 0
-10 -4 -10 -10z"/>
<path d="M2392 1229 c2 -6 8 -10 13 -10 5 0 11 4 13 10 2 6 -4 11 -13 11 -9 0
-15 -5 -13 -11z"/>
<path d="M2226 1201 c-10 -16 21 -20 41 -6 17 13 16 14 -9 15 -15 0 -29 -4
-32 -9z"/>
<path d="M2454 1178 c1 -13 6 -22 9 -20 4 1 12 2 17 2 6 0 10 9 10 20 0 13 -7
20 -20 20 -15 0 -19 -6 -16 -22z"/>
<path d="M2373 1093 c-3 -10 -8 -21 -9 -24 -2 -3 8 -4 21 -1 21 3 23 7 14 23
-12 24 -18 24 -26 2z"/>
<path d="M2431 1094 c0 -11 3 -14 6 -6 3 7 2 16 -1 19 -3 4 -6 -2 -5 -13z"/>
<path d="M1240 1090 c0 -5 4 -10 9 -10 6 0 13 5 16 10 3 6 -1 10 -9 10 -9 0
-16 -4 -16 -10z"/>
<path d="M1440 1089 c0 -5 5 -7 10 -4 6 3 10 8 10 11 0 2 -4 4 -10 4 -5 0 -10
-5 -10 -11z"/>
<path d="M1880 1080 c0 -13 18 -22 24 -11 3 5 -1 11 -9 15 -8 3 -15 1 -15 -4z"/>
<path d="M2001 1034 c0 -11 3 -14 6 -6 3 7 2 16 -1 19 -3 4 -6 -2 -5 -13z"/>
<path d="M1731 961 c-9 -6 -10 -11 -2 -15 13 -8 31 1 31 15 0 11 -11 11 -29 0z"/>
<path d="M1506 881 c-4 -7 -5 -15 -2 -18 9 -9 19 4 14 18 -4 11 -6 11 -12 0z"/>
<path d="M1718 833 c-24 -6 -23 -19 3 -26 26 -7 51 2 46 17 -4 12 -24 16 -49
9z"/>
<path d="M1445 790 c3 -5 13 -10 21 -10 8 0 14 5 14 10 0 6 -9 10 -21 10 -11
0 -17 -4 -14 -10z"/>
<path d="M1725 779 c-10 -15 3 -25 16 -12 7 7 7 13 1 17 -6 3 -14 1 -17 -5z"/>
<path d="M1729 718 c-12 -23 -12 -23 10 -4 23 21 26 26 11 26 -5 0 -15 -10
-21 -22z"/>
<path d="M2405 719 c-4 -6 -2 -15 5 -19 17 -10 42 -1 37 14 -5 16 -34 19 -42
5z"/>
<path d="M1450 690 c0 -5 7 -10 15 -10 8 0 15 5 15 10 0 6 -7 10 -15 10 -8 0
-15 -4 -15 -10z"/>
<path d="M1600 600 c-12 -8 -12 -10 2 -15 20 -8 41 2 33 16 -8 11 -16 11 -35
-1z"/>
<path d="M1740 575 c-7 -9 -11 -18 -8 -20 9 -10 38 7 38 21 0 18 -14 18 -30
-1z"/>
<path d="M1935 580 c-9 -15 -1 -23 21 -18 15 3 16 4 1 16 -11 9 -17 10 -22 2z"/>
<path d="M1685 570 c3 -5 8 -10 11 -10 2 0 4 5 4 10 0 6 -5 10 -11 10 -5 0 -7
-4 -4 -10z"/>
<path d="M1638 543 c7 -3 16 -2 19 1 4 3 -2 6 -13 5 -11 0 -14 -3 -6 -6z"/>
<path d="M1850 514 c0 -8 5 -12 10 -9 6 3 10 10 10 16 0 5 -4 9 -10 9 -5 0
-10 -7 -10 -16z"/>
<path d="M1715 434 c-28 -30 -23 -54 5 -29 12 11 26 14 40 10 21 -7 21 -6 5
19 -10 14 -19 26 -22 26 -2 0 -15 -12 -28 -26z"/>
<path d="M1970 440 c0 -5 5 -10 11 -10 5 0 7 5 4 10 -3 6 -8 10 -11 10 -2 0
-4 -4 -4 -10z"/>
<path d="M1830 411 c0 -6 5 -13 10 -16 6 -4 8 -15 5 -26 -4 -13 -2 -19 9 -19
24 0 28 18 9 45 -19 25 -33 32 -33 16z"/>
<path d="M2015 390 c4 -6 11 -8 16 -5 14 9 11 15 -7 15 -8 0 -12 -5 -9 -10z"/>
<path d="M2627 368 c-10 -11 -17 -21 -15 -23 6 -6 48 15 48 24 0 18 -15 18
-33 -1z"/>
<path d="M2393 338 c2 -7 10 -13 17 -13 7 0 15 6 18 13 2 7 -5 12 -18 12 -13
0 -20 -5 -17 -12z"/>
<path d="M2010 330 c-12 -8 -11 -13 9 -34 25 -26 46 -25 54 2 8 32 -31 52 -63
32z"/>
<path d="M2305 330 c27 -12 35 -12 35 0 0 6 -12 10 -27 9 -25 0 -26 -1 -8 -9z"/>
<path d="M2307 304 c-11 -11 -8 -44 3 -44 15 0 24 30 13 41 -5 5 -12 6 -16 3z"/>
<path d="M1850 280 c0 -5 9 -10 20 -10 11 0 20 5 20 10 0 6 -9 10 -20 10 -11
0 -20 -4 -20 -10z"/>
<path d="M1798 273 c6 -2 18 -2 25 0 6 3 1 5 -13 5 -14 0 -19 -2 -12 -5z"/>
<path d="M1955 270 c3 -5 8 -10 11 -10 2 0 4 5 4 10 0 6 -5 10 -11 10 -5 0 -7
-4 -4 -10z"/>
<path d="M2550 235 c0 -18 48 -26 125 -21 75 5 73 4 55 16 -20 13 -64 12 -94
-1 -19 -9 -31 -8 -55 4 -26 13 -31 13 -31 2z"/>
<path d="M1885 220 c3 -5 8 -10 11 -10 2 0 4 5 4 10 0 6 -5 10 -11 10 -5 0 -7
-4 -4 -10z"/>
<path d="M1943 216 c-13 -6 -23 -14 -23 -18 0 -11 4 -10 35 6 31 16 20 27 -12
12z"/>
<path d="M1830 210 c0 -5 5 -10 10 -10 6 0 10 5 10 10 0 6 -4 10 -10 10 -5 0
-10 -4 -10 -10z"/>
<path d="M2778 212 c-24 -3 -26 -5 -15 -23 14 -23 30 -24 47 -4 17 20 3 32
-32 27z"/>
<path d="M2273 183 c-20 -8 -15 -23 7 -23 11 0 20 7 20 15 0 15 -6 17 -27 8z"/>
<path d="M4076 164 c-10 -25 -7 -34 9 -28 17 7 20 30 6 38 -5 3 -12 -1 -15
-10z"/>
<path d="M2835 160 c-3 -5 1 -10 10 -10 9 0 13 5 10 10 -3 6 -8 10 -10 10 -2
0 -7 -4 -10 -10z"/>
<path d="M2627 132 c-15 -15 -27 -31 -27 -35 0 -9 102 -3 118 7 10 6 10 11 2
21 -7 8 -9 19 -5 25 4 6 -7 10 -28 10 -23 0 -41 -8 -60 -28z"/>
<path d="M2057 135 c-7 -16 8 -29 23 -20 15 9 12 35 -4 35 -8 0 -16 -7 -19
-15z"/>
<path d="M1917 112 c2 -11 -6 -31 -21 -49 -32 -38 -32 -43 -1 -43 14 0 25 -4
25 -10 0 -6 31 -10 73 -10 65 1 70 2 53 15 -11 9 -41 15 -69 15 l-50 0 7 39
c4 27 2 42 -8 50 -12 10 -13 9 -9 -7z"/>
<path d="M2782 108 c7 -20 48 -23 48 -4 0 11 -9 16 -26 16 -16 0 -24 -5 -22
-12z"/>
<path d="M2220 75 c0 -16 27 -32 37 -21 7 7 -16 36 -28 36 -5 0 -9 -7 -9 -15z"/>
<path d="M2327 57 c-3 -7 -2 -19 3 -26 5 -9 9 -8 14 5 4 9 3 21 -2 26 -6 6
-12 4 -15 -5z"/>
<path d="M2752 47 c-26 -31 40 -49 70 -19 15 15 9 20 -28 28 -20 4 -34 1 -42
-9z"/>
<path d="M3676 15 c-19 -14 -18 -15 11 -15 17 0 36 7 43 15 10 13 9 15 -11 15
-13 0 -33 -7 -43 -15z"/>
</g>
</svg>
